<svg xmlns="http://www.w3.org/2000/svg" viewBox="0 0 72 126" role="img" aria-label="Sri Lanka district map logo">
  <g fill="none" stroke="#ffffff" stroke-width="1.7" stroke-linecap="round" stroke-linejoin="round">
    <path d="M 4.90 14.06 L 4.22 14.00 L 3.58 13.33 L 3.26 13.27 L 3.00 13.53 L 3.12 14.78 L 4.59 15.65 L 5.05 15.69 L 5.39 15.16 L 5.20 14.22 L 4.97 14.07 Z"/>
    <path d="M 6.90 9.38 L 6.35 10.18 L 6.52 10.46 L 7.03 10.02 L 6.94 9.46 Z"/>
    <path d="M 7.80 9.30 L 7.83 9.17 L 7.76 8.94 L 7.85 8.68 L 7.83 8.54 L 7.70 8.76 L 7.63 9.15 L 7.69 9.39 L 7.76 9.44 L 7.80 9.43 Z"/>
    <path d="M 9.05 7.65 L 9.23 8.22 L 8.90 8.62 L 9.61 8.90 L 10.13 8.66 L 10.03 8.19 L 10.29 7.41 L 10.14 7.12 L 10.43 7.03 L 9.35 7.15 L 9.05 7.48 Z"/>
    <path d="M 31.75 16.13 L 24.05 10.06 L 22.89 8.68 L 20.65 5.20 L 19.62 4.99 L 18.35 5.31 L 17.48 5.29 L 16.33 5.78 L 14.13 5.36 L 14.42 5.52 L 12.47 5.89 L 11.80 6.20 L 11.43 6.61 L 10.80 6.75 L 10.59 6.95 L 10.62 7.41 L 11.13 7.87 L 11.34 8.35 L 11.28 8.60 L 11.73 9.32 L 11.99 9.35 L 12.27 8.97 L 12.55 8.05 L 12.35 9.06 L 12.76 9.46 L 13.01 9.25 L 13.28 9.36 L 13.27 9.84 L 13.73 10.37 L 14.52 10.61 L 14.72 10.49 L 16.18 11.41 L 17.32 11.72 L 16.84 11.56 L 16.24 10.93 L 15.78 10.77 L 15.63 10.21 L 17.40 11.19 L 19.26 12.54 L 19.51 12.38 L 18.80 12.10 L 18.46 10.90 L 18.15 10.90 L 17.98 10.63 L 18.12 10.42 L 18.50 10.34 L 20.89 11.54 L 22.09 9.27 L 23.18 10.51 L 25.21 11.64 L 26.58 12.72 L 26.84 13.29 L 26.81 13.75 L 27.34 14.30 L 31.51 16.22 Z"/>
    <path d="M 8.58 11.63 L 9.02 11.85 L 8.66 11.80 L 8.90 12.09 L 8.50 12.00 L 8.44 12.22 L 8.01 11.92 L 8.02 11.20 L 7.95 11.36 L 7.72 11.23 L 7.56 11.93 L 7.73 12.01 L 7.67 12.28 L 7.50 12.27 L 7.51 12.64 L 8.69 12.93 L 9.23 12.83 L 9.26 11.77 L 8.71 11.39 L 8.62 11.64 Z"/>
    <path d="M 6.66 12.09 L 6.61 12.01 L 6.68 11.39 L 6.67 11.35 L 6.54 11.32 L 6.31 11.57 L 6.28 11.77 L 6.32 11.95 L 6.33 12.28 L 6.38 12.33 L 6.64 12.43 L 6.70 12.23 Z"/>
    <path d="M 9.13 11.11 L 9.13 11.02 L 9.06 10.94 L 8.96 10.97 L 9.02 11.28 L 9.18 11.46 L 9.22 11.47 L 9.25 11.42 L 9.17 11.44 L 9.22 11.43 L 9.28 11.31 L 9.22 11.28 L 9.25 11.19 Z"/>
    <path d="M 12.82 11.31 L 12.86 10.91 L 12.77 11.02 L 12.25 10.95 L 11.06 10.16 L 11.32 10.03 L 11.20 9.93 L 11.41 9.70 L 10.93 9.59 L 11.06 9.70 L 10.57 9.84 L 10.81 10.44 L 10.27 9.78 L 10.36 9.48 L 9.98 9.03 L 9.56 9.21 L 9.26 8.90 L 8.64 8.91 L 8.88 9.27 L 8.71 9.44 L 8.80 9.71 L 9.11 10.15 L 9.43 10.23 L 9.57 9.91 L 9.72 10.00 L 9.32 10.38 L 9.45 10.81 L 10.39 11.49 L 10.62 11.45 L 10.91 11.00 L 11.43 11.06 L 12.47 11.60 L 12.79 11.33 L 12.91 11.59 L 12.69 11.81 L 12.30 11.74 L 12.98 12.05 L 13.36 11.86 L 13.59 11.12 L 13.18 10.47 L 13.08 10.75 L 12.91 10.70 L 12.98 11.23 L 12.78 11.31 Z"/>
    <path d="M 13.64 15.75 L 13.62 15.91 L 13.69 15.95 L 13.78 15.91 L 13.76 15.82 L 13.86 15.67 L 13.87 15.49 L 13.76 15.39 L 13.50 15.39 L 13.46 15.52 Z"/>
    <path d="M 12.87 20.66 L 12.50 20.98 L 12.50 21.27 L 12.68 21.45 L 13.08 21.33 L 13.40 21.70 L 13.49 21.25 L 13.10 21.20 L 13.19 21.07 L 12.93 20.66 Z"/>
    <path d="M 14.98 19.94 L 15.08 19.98 L 15.14 19.93 L 15.05 19.88 L 15.10 19.65 L 15.04 19.61 L 15.02 19.43 L 14.93 19.51 L 14.88 19.73 L 14.91 19.90 Z"/>
    <path d="M 20.89 11.54 L 23.47 13.13 L 24.73 14.54 L 24.90 14.36 L 25.33 14.35 L 25.27 14.55 L 24.91 14.48 L 25.10 14.82 L 24.88 15.41 L 23.77 15.90 L 23.41 15.72 L 23.37 16.10 L 23.19 16.26 L 22.58 16.06 L 22.40 16.18 L 22.62 16.48 L 22.40 16.41 L 22.44 16.65 L 22.29 16.25 L 21.99 16.16 L 22.00 16.37 L 21.82 16.40 L 21.88 16.23 L 21.25 16.14 L 20.32 15.69 L 20.61 15.62 L 20.96 15.79 L 21.20 15.62 L 21.57 15.67 L 20.90 15.28 L 20.67 15.00 L 20.70 14.75 L 21.06 15.01 L 21.69 15.08 L 19.97 13.91 L 19.87 14.12 L 19.19 13.80 L 19.14 13.59 L 18.39 13.64 L 17.57 13.18 L 17.08 12.63 L 16.70 12.71 L 16.39 12.32 L 15.28 11.97 L 15.16 11.63 L 14.88 11.99 L 16.00 12.60 L 17.69 13.89 L 18.85 15.36 L 18.68 15.78 L 18.37 15.92 L 17.64 16.82 L 14.93 18.20 L 15.22 19.94 L 15.98 20.10 L 16.98 20.93 L 16.60 21.58 L 16.92 22.23 L 16.78 22.55 L 16.89 23.45 L 16.76 23.55 L 17.75 23.49 L 19.02 22.72 L 19.80 22.81 L 19.66 21.55 L 20.47 20.93 L 21.16 20.77 L 21.61 20.92 L 22.86 20.61 L 25.04 20.83 L 25.38 20.62 L 25.42 19.69 L 28.71 19.52 L 29.10 17.74 L 29.88 18.59 L 30.68 19.00 L 30.71 17.65 L 31.40 17.13 L 31.53 16.61 L 31.33 16.45 L 31.57 16.48 L 31.51 16.22 L 27.34 14.30 L 26.81 13.75 L 26.84 13.29 L 26.58 12.72 L 25.21 11.64 L 23.18 10.51 L 22.09 9.27 L 21.15 11.12 Z"/>
    <path d="M 16.76 23.55 L 16.44 24.01 L 16.50 24.36 L 16.30 25.01 L 15.60 25.98 L 15.62 26.74 L 15.39 27.13 L 15.47 27.43 L 14.48 29.18 L 14.57 29.26 L 13.81 29.37 L 13.77 29.54 L 13.06 29.87 L 12.96 30.45 L 12.39 30.65 L 11.78 31.31 L 10.99 31.36 L 10.71 31.56 L 11.33 32.22 L 11.18 32.37 L 11.43 32.67 L 11.20 32.64 L 11.25 33.49 L 10.82 35.30 L 12.15 37.92 L 11.86 38.28 L 11.93 39.23 L 11.63 40.07 L 11.79 40.64 L 11.59 41.12 L 10.98 41.77 L 10.96 42.56 L 11.49 42.90 L 11.83 42.80 L 12.30 43.07 L 12.67 42.99 L 13.10 43.32 L 13.36 43.24 L 13.58 43.50 L 14.62 43.90 L 14.83 43.91 L 14.98 40.50 L 14.65 39.42 L 15.71 40.01 L 16.71 40.13 L 20.31 39.21 L 19.09 37.64 L 18.40 37.19 L 18.61 36.42 L 19.20 36.71 L 20.14 34.84 L 22.15 35.07 L 22.74 34.76 L 24.34 34.49 L 25.26 33.98 L 24.60 31.63 L 23.70 31.03 L 23.07 30.94 L 18.52 31.22 L 18.58 30.59 L 18.97 30.35 L 18.56 29.84 L 19.11 28.39 L 19.86 28.12 L 19.74 26.86 L 20.03 26.39 L 19.77 25.50 L 19.13 24.53 L 19.02 22.72 L 17.75 23.49 L 16.83 23.56 Z"/>
    <path d="M 10.78 31.47 L 10.92 31.08 L 10.76 31.02 L 10.70 31.06 L 10.46 31.45 L 10.56 31.55 Z"/>
    <path d="M 10.44 31.32 L 10.65 31.06 L 10.61 30.97 L 10.46 30.88 L 10.25 30.92 L 10.12 31.06 L 10.14 31.16 L 10.17 31.14 Z"/>
    <path d="M 10.10 31.06 L 9.97 30.78 L 10.21 30.86 L 10.27 30.69 L 10.75 30.47 L 11.16 30.47 L 11.16 30.26 L 9.86 29.36 L 8.99 27.93 L 9.50 28.64 L 11.19 29.46 L 9.25 27.60 L 7.36 26.89 L 5.93 26.59 L 4.74 26.64 L 4.15 27.03 L 4.39 27.29 L 4.09 27.34 L 4.04 27.49 L 5.32 27.56 L 7.24 28.37 L 8.65 29.38 L 9.67 30.42 Z"/>
    <path d="M 31.51 16.22 L 31.57 16.48 L 31.33 16.45 L 31.53 16.61 L 31.40 17.13 L 30.71 17.65 L 30.68 19.00 L 29.88 18.59 L 29.10 17.74 L 28.71 19.52 L 25.42 19.69 L 25.38 20.62 L 25.04 20.83 L 22.86 20.61 L 21.61 20.92 L 21.16 20.77 L 20.26 21.00 L 19.66 21.55 L 19.80 22.81 L 19.02 22.72 L 19.13 24.53 L 19.77 25.50 L 20.03 26.39 L 19.74 26.86 L 19.86 28.12 L 19.11 28.39 L 18.56 29.84 L 18.97 30.35 L 18.58 30.59 L 18.52 31.22 L 23.41 30.96 L 24.92 30.01 L 26.19 28.85 L 25.96 27.05 L 25.31 27.06 L 25.31 26.33 L 27.89 26.26 L 28.45 26.97 L 28.53 27.48 L 29.04 27.49 L 29.92 26.56 L 30.66 26.46 L 30.57 26.01 L 32.49 26.28 L 32.66 27.43 L 33.13 27.53 L 33.55 27.28 L 33.82 27.54 L 33.40 28.81 L 33.64 28.83 L 34.60 28.22 L 36.65 29.44 L 36.02 31.61 L 36.31 31.32 L 37.86 31.06 L 38.03 30.92 L 39.10 30.94 L 39.23 30.68 L 39.62 30.55 L 39.69 30.30 L 40.00 30.37 L 40.05 30.19 L 40.60 30.15 L 40.80 29.98 L 40.56 29.98 L 40.72 29.60 L 40.63 29.44 L 40.51 29.39 L 40.24 29.79 L 39.31 28.99 L 39.35 28.81 L 39.74 28.64 L 39.69 28.46 L 39.90 28.27 L 40.79 29.10 L 41.50 30.07 L 41.90 30.06 L 39.37 25.78 L 38.80 24.51 L 38.36 22.90 L 37.36 21.06 L 35.41 19.46 L 33.21 17.31 L 33.22 17.56 L 34.76 19.21 L 34.72 19.37 L 34.54 19.25 L 34.36 18.80 L 33.04 17.76 L 33.19 17.28 L 31.75 16.13 Z"/>
    <path d="M 20.31 39.21 L 20.36 40.74 L 20.74 41.11 L 21.03 41.06 L 21.47 41.27 L 21.88 42.76 L 23.34 43.19 L 23.76 42.40 L 24.29 42.33 L 24.59 42.07 L 24.62 40.95 L 25.17 40.58 L 25.50 39.83 L 25.84 39.76 L 25.90 39.40 L 26.50 38.95 L 26.71 38.85 L 28.35 39.86 L 28.73 39.85 L 29.04 39.44 L 30.22 38.62 L 30.33 38.14 L 30.80 37.98 L 31.15 37.32 L 31.66 37.07 L 32.12 36.26 L 32.69 35.82 L 31.91 34.57 L 30.89 34.25 L 30.98 33.60 L 33.11 33.55 L 34.43 32.75 L 35.65 32.55 L 36.65 29.44 L 34.60 28.22 L 33.64 28.83 L 33.40 28.81 L 33.82 27.54 L 33.55 27.28 L 33.13 27.53 L 32.66 27.43 L 32.49 26.28 L 32.21 26.18 L 32.12 26.31 L 31.78 26.07 L 30.57 26.01 L 30.66 26.46 L 29.92 26.56 L 29.04 27.49 L 28.53 27.48 L 28.45 26.97 L 27.89 26.26 L 25.31 26.33 L 25.31 27.06 L 25.96 27.05 L 26.19 28.85 L 24.92 30.01 L 23.41 30.96 L 24.23 31.29 L 24.60 31.63 L 25.26 33.98 L 24.34 34.49 L 22.74 34.76 L 22.15 35.07 L 20.14 34.84 L 19.20 36.71 L 18.61 36.42 L 18.37 37.09 L 19.09 37.64 L 20.24 39.07 Z"/>
    <path d="M 12.97 105.57 L 13.46 106.78 L 13.64 107.72 L 14.18 108.81 L 14.18 109.32 L 14.46 109.94 L 14.32 110.63 L 14.87 111.62 L 15.20 112.97 L 15.96 113.70 L 16.26 114.22 L 16.30 114.73 L 16.99 115.32 L 17.02 115.60 L 19.01 117.35 L 19.53 117.55 L 19.78 117.92 L 19.93 117.55 L 20.19 117.58 L 20.13 117.72 L 20.41 117.66 L 20.52 117.78 L 20.30 118.10 L 20.54 118.46 L 20.73 118.33 L 21.18 118.66 L 22.67 118.87 L 24.32 119.59 L 24.74 119.59 L 24.65 119.10 L 24.93 118.36 L 25.88 118.06 L 25.55 117.66 L 24.94 117.61 L 24.87 117.00 L 25.02 116.91 L 25.16 117.09 L 25.33 117.05 L 25.51 116.57 L 26.27 116.06 L 26.34 115.84 L 25.80 115.34 L 25.37 115.24 L 25.20 114.81 L 24.78 114.53 L 24.73 113.72 L 25.07 113.53 L 24.83 113.10 L 25.28 112.98 L 25.12 112.54 L 24.70 112.07 L 25.98 112.27 L 26.37 111.92 L 26.24 111.61 L 26.41 111.49 L 26.23 111.26 L 26.35 111.07 L 25.84 110.54 L 25.58 109.94 L 25.00 109.63 L 24.52 108.99 L 25.32 108.73 L 26.55 109.69 L 26.78 110.06 L 27.41 110.31 L 27.56 110.14 L 27.73 110.19 L 28.02 109.74 L 27.72 109.10 L 27.09 108.58 L 26.98 108.20 L 27.50 107.80 L 28.01 107.73 L 27.97 107.43 L 27.32 107.41 L 27.12 107.18 L 26.39 106.92 L 26.12 107.08 L 25.75 106.99 L 24.63 106.01 L 24.27 105.97 L 22.62 106.86 L 22.20 106.84 L 21.94 107.01 L 21.94 107.64 L 22.25 108.68 L 22.13 108.99 L 21.51 108.27 L 20.48 107.46 L 19.78 107.36 L 19.62 107.61 L 19.46 107.60 L 19.48 107.96 L 18.95 108.11 L 17.92 107.74 L 17.21 107.78 L 16.71 107.18 L 15.93 106.71 L 15.40 106.82 L 15.16 106.52 L 14.23 106.18 L 14.03 105.83 L 13.67 105.66 L 13.31 105.97 L 13.00 105.53 Z"/>
    <path d="M 33.19 109.55 L 32.79 109.65 L 33.00 110.11 L 32.67 110.59 L 32.92 110.91 L 32.25 111.13 L 31.36 112.70 L 31.45 113.03 L 31.96 113.24 L 32.21 113.58 L 32.89 113.47 L 32.96 113.69 L 32.49 114.44 L 32.54 114.66 L 32.90 114.81 L 33.00 115.08 L 33.69 114.95 L 33.96 115.19 L 33.49 115.59 L 33.54 115.96 L 33.89 116.37 L 33.84 116.74 L 32.94 117.06 L 32.74 117.34 L 33.00 117.46 L 33.09 117.87 L 33.83 117.83 L 34.03 118.07 L 33.69 118.36 L 33.73 118.89 L 34.16 118.82 L 35.20 119.44 L 35.15 119.16 L 35.56 118.94 L 35.41 118.89 L 35.51 118.67 L 36.48 118.43 L 36.74 118.07 L 37.08 117.94 L 37.01 117.72 L 37.25 117.51 L 38.43 117.27 L 38.83 117.37 L 39.15 116.89 L 41.08 116.40 L 41.28 116.13 L 42.28 116.04 L 42.99 115.62 L 44.65 115.34 L 45.56 115.27 L 45.75 115.39 L 45.83 115.23 L 46.05 115.27 L 45.85 115.23 L 45.97 115.11 L 45.84 114.83 L 46.10 114.84 L 46.11 115.16 L 46.74 115.06 L 46.82 114.70 L 47.96 114.30 L 48.52 113.92 L 49.66 113.72 L 49.95 113.30 L 52.56 112.73 L 53.03 112.27 L 53.04 112.11 L 52.93 112.17 L 53.08 111.99 L 54.86 111.19 L 55.94 109.90 L 57.22 109.41 L 57.28 109.08 L 57.62 108.87 L 57.88 108.25 L 58.65 107.88 L 59.46 107.74 L 59.76 107.56 L 59.66 107.49 L 59.77 107.30 L 60.73 106.78 L 61.30 106.27 L 61.21 105.93 L 62.20 105.41 L 62.55 104.86 L 63.49 104.20 L 63.93 103.49 L 63.02 103.22 L 62.58 102.61 L 62.22 102.47 L 61.86 102.55 L 61.36 101.70 L 60.98 101.43 L 60.73 101.99 L 60.40 102.00 L 60.18 102.30 L 59.71 102.19 L 59.16 102.72 L 58.75 102.74 L 58.48 103.22 L 57.24 103.93 L 57.16 104.60 L 57.36 104.86 L 57.07 105.32 L 57.18 106.19 L 56.95 106.53 L 55.99 106.18 L 55.63 106.23 L 55.40 106.49 L 54.83 106.58 L 54.61 106.33 L 54.34 106.81 L 54.02 106.82 L 53.84 107.05 L 51.21 107.68 L 51.06 108.10 L 50.47 108.52 L 49.64 108.40 L 49.51 108.26 L 49.61 108.02 L 49.21 107.74 L 48.42 106.60 L 48.00 106.68 L 47.88 106.98 L 47.61 106.99 L 47.42 106.78 L 47.25 106.84 L 47.02 106.14 L 45.96 106.22 L 45.60 106.05 L 45.06 106.06 L 44.79 106.43 L 44.42 106.12 L 44.43 106.56 L 44.06 107.02 L 43.35 106.88 L 43.21 107.13 L 43.18 107.68 L 43.41 107.69 L 43.63 107.98 L 43.50 108.40 L 42.01 108.98 L 41.66 109.32 L 40.63 109.83 L 40.92 110.08 L 41.01 110.53 L 41.22 110.60 L 41.24 110.93 L 41.57 111.54 L 41.18 111.86 L 40.92 111.50 L 40.31 111.56 L 39.78 111.24 L 39.47 111.32 L 39.09 110.71 L 38.75 110.56 L 37.77 110.75 L 36.98 110.70 L 34.19 109.54 L 33.31 109.57 Z"/>
    <path d="M 24.65 119.64 L 25.74 119.96 L 25.96 119.49 L 26.31 119.43 L 26.79 119.70 L 26.72 120.16 L 26.48 120.20 L 26.78 120.36 L 26.89 120.25 L 27.39 120.47 L 27.97 120.39 L 28.73 120.53 L 29.44 120.30 L 29.85 120.35 L 30.45 120.55 L 30.64 120.99 L 30.86 121.01 L 30.96 120.81 L 31.71 120.61 L 31.62 120.49 L 31.78 120.24 L 32.18 120.16 L 32.30 120.27 L 32.58 119.96 L 34.00 119.70 L 34.06 119.82 L 34.73 119.81 L 34.59 119.67 L 34.73 119.16 L 34.16 118.82 L 33.73 118.89 L 33.69 118.36 L 34.03 118.07 L 33.89 117.87 L 33.09 117.87 L 33.00 117.46 L 32.74 117.34 L 32.94 117.06 L 33.84 116.74 L 33.89 116.37 L 33.54 115.96 L 33.49 115.59 L 33.96 115.19 L 33.90 115.04 L 33.00 115.08 L 32.90 114.81 L 32.54 114.66 L 32.49 114.44 L 32.96 113.69 L 32.89 113.47 L 32.21 113.58 L 31.96 113.24 L 31.45 113.03 L 31.36 112.70 L 32.25 111.13 L 32.92 110.91 L 32.67 110.59 L 33.00 110.11 L 32.79 109.65 L 33.19 109.55 L 33.18 109.17 L 33.34 109.08 L 32.81 108.63 L 32.99 108.55 L 32.93 108.14 L 31.44 108.37 L 31.31 107.96 L 31.63 107.62 L 31.67 106.88 L 31.02 106.84 L 30.48 107.04 L 30.09 106.94 L 29.78 107.08 L 29.62 106.88 L 29.47 107.09 L 29.15 107.12 L 29.15 107.53 L 27.80 107.84 L 27.63 107.75 L 26.98 108.20 L 27.09 108.58 L 27.72 109.10 L 28.02 109.74 L 27.73 110.19 L 27.56 110.14 L 27.41 110.31 L 26.78 110.06 L 26.55 109.69 L 25.32 108.73 L 24.56 108.91 L 24.78 109.43 L 25.58 109.94 L 25.84 110.54 L 26.35 111.07 L 26.23 111.26 L 26.41 111.49 L 26.24 111.61 L 26.37 111.92 L 25.98 112.27 L 24.70 112.07 L 25.12 112.54 L 25.28 112.98 L 24.83 113.10 L 25.07 113.53 L 24.73 113.72 L 24.78 114.53 L 25.20 114.81 L 25.37 115.24 L 25.80 115.34 L 26.34 115.84 L 26.27 116.06 L 25.51 116.57 L 25.33 117.05 L 25.16 117.09 L 25.02 116.91 L 24.87 117.00 L 24.94 117.61 L 25.55 117.66 L 25.88 118.06 L 24.93 118.36 L 24.64 119.61 Z"/>
    <path d="M 63.93 103.49 L 64.89 101.61 L 65.56 100.95 L 65.50 100.59 L 66.00 99.45 L 65.80 99.08 L 65.86 98.72 L 66.67 97.63 L 66.74 96.88 L 67.43 95.98 L 67.23 95.26 L 67.34 94.51 L 67.85 93.82 L 67.66 93.69 L 67.62 93.38 L 68.03 92.79 L 68.00 91.64 L 68.67 89.81 L 68.61 89.43 L 69.00 88.33 L 68.70 87.54 L 68.35 85.39 L 68.58 81.36 L 68.73 80.84 L 68.61 79.38 L 67.81 76.70 L 67.36 76.05 L 67.09 74.76 L 66.47 75.05 L 65.96 74.72 L 65.50 75.37 L 64.44 75.50 L 63.42 76.52 L 62.93 76.73 L 62.82 77.11 L 62.62 77.18 L 62.43 75.33 L 62.53 75.00 L 62.16 74.11 L 62.21 73.44 L 61.30 73.94 L 58.31 73.92 L 57.61 73.73 L 57.75 73.54 L 56.35 72.91 L 55.80 72.11 L 56.22 70.64 L 56.16 69.97 L 54.32 69.54 L 53.86 69.23 L 52.70 67.68 L 52.62 67.27 L 50.76 67.19 L 50.50 67.34 L 50.11 67.10 L 49.89 67.60 L 50.05 67.86 L 50.05 68.85 L 49.56 69.08 L 49.50 69.63 L 49.30 69.83 L 48.82 69.41 L 47.46 68.86 L 47.26 68.96 L 46.45 68.55 L 45.76 67.51 L 45.00 67.34 L 44.42 67.70 L 42.64 67.61 L 42.74 68.29 L 42.59 68.59 L 42.80 69.40 L 42.42 69.94 L 42.31 70.48 L 42.53 70.89 L 43.36 71.34 L 43.42 72.61 L 43.84 73.06 L 44.20 74.02 L 44.61 74.00 L 44.88 73.73 L 45.22 73.82 L 46.31 72.85 L 47.81 72.11 L 48.53 71.98 L 49.05 72.54 L 49.09 73.70 L 48.85 74.15 L 48.86 75.02 L 48.37 75.83 L 48.55 76.01 L 48.92 77.25 L 48.70 77.80 L 49.00 78.09 L 49.48 79.13 L 49.99 78.87 L 50.25 79.06 L 50.24 79.33 L 50.78 79.88 L 51.01 80.36 L 50.88 80.63 L 51.23 81.24 L 51.18 81.42 L 51.45 81.63 L 51.42 81.87 L 52.00 81.37 L 52.53 81.20 L 52.41 80.76 L 52.59 80.13 L 52.38 79.72 L 52.46 78.99 L 53.17 79.05 L 53.84 78.82 L 53.78 78.40 L 54.06 78.37 L 54.41 78.01 L 54.03 77.21 L 54.07 76.83 L 54.48 76.91 L 54.98 76.65 L 55.03 76.16 L 55.46 76.08 L 56.48 75.41 L 57.15 75.52 L 56.65 76.24 L 57.10 76.50 L 56.96 77.35 L 57.50 78.98 L 57.15 79.37 L 58.33 80.39 L 58.59 81.48 L 58.46 81.80 L 58.78 81.88 L 59.35 82.55 L 58.44 83.14 L 58.11 83.60 L 57.78 84.58 L 58.17 84.95 L 58.11 85.50 L 58.40 86.10 L 60.62 86.93 L 61.16 86.96 L 61.31 87.53 L 60.95 88.23 L 61.15 88.88 L 61.36 89.04 L 61.26 89.61 L 61.84 90.18 L 61.59 91.57 L 60.98 101.43 L 61.36 101.70 L 61.86 102.55 L 62.22 102.47 L 62.58 102.61 L 63.02 103.22 L 63.68 103.37 Z"/>
    <path d="M 14.30 43.75 L 14.61 44.75 L 14.28 45.58 L 13.92 46.18 L 13.05 46.83 L 13.06 47.11 L 12.66 47.59 L 12.04 47.69 L 11.93 48.26 L 12.59 49.38 L 12.80 51.15 L 13.21 51.84 L 13.34 52.60 L 14.15 52.64 L 14.46 52.32 L 15.17 52.86 L 15.69 52.75 L 15.90 53.13 L 16.20 53.16 L 16.36 53.52 L 16.98 54.00 L 17.81 54.17 L 18.24 54.51 L 18.78 54.57 L 18.91 54.88 L 19.47 54.82 L 19.71 55.11 L 20.78 55.42 L 21.23 55.95 L 22.47 55.90 L 24.30 57.66 L 24.96 57.95 L 25.33 57.74 L 25.59 57.93 L 25.76 58.08 L 25.64 59.15 L 25.96 60.47 L 25.74 60.75 L 26.18 60.91 L 26.59 60.70 L 27.00 60.99 L 27.14 62.19 L 27.39 62.45 L 27.55 63.00 L 27.23 63.81 L 27.53 64.08 L 27.67 64.61 L 28.14 64.81 L 28.15 64.52 L 28.87 64.48 L 30.08 63.84 L 30.40 63.27 L 30.82 63.30 L 30.91 63.57 L 31.11 63.64 L 31.79 63.26 L 31.79 62.85 L 32.27 62.67 L 32.07 62.33 L 32.71 61.88 L 32.68 60.95 L 32.85 60.55 L 33.14 60.45 L 33.55 60.65 L 34.25 59.61 L 35.74 59.00 L 35.55 58.71 L 35.84 58.05 L 36.36 57.42 L 35.81 57.34 L 35.83 54.91 L 36.61 53.32 L 36.68 52.52 L 37.17 51.12 L 39.97 51.05 L 40.34 49.70 L 40.72 49.39 L 40.81 48.30 L 41.23 47.58 L 41.59 46.36 L 42.15 45.74 L 42.12 45.49 L 42.46 45.50 L 42.69 45.30 L 42.56 45.01 L 41.87 44.98 L 41.88 44.60 L 41.40 44.34 L 41.30 43.02 L 40.51 42.04 L 40.47 41.44 L 39.82 40.95 L 39.80 40.23 L 40.00 39.74 L 40.41 39.42 L 40.40 39.20 L 39.75 37.96 L 39.72 37.34 L 39.37 37.07 L 39.39 36.60 L 39.50 36.01 L 40.32 34.97 L 40.37 34.58 L 39.15 33.24 L 38.62 33.09 L 37.40 32.25 L 36.53 32.11 L 35.65 32.55 L 34.43 32.75 L 33.11 33.55 L 30.98 33.60 L 30.89 34.25 L 31.91 34.57 L 32.21 35.21 L 32.63 35.57 L 32.63 35.95 L 32.12 36.26 L 31.66 37.07 L 31.15 37.32 L 30.80 37.98 L 30.33 38.14 L 30.22 38.62 L 29.04 39.44 L 28.73 39.85 L 28.35 39.86 L 26.71 38.85 L 25.90 39.40 L 25.84 39.76 L 25.50 39.83 L 25.17 40.58 L 24.62 40.95 L 24.59 42.07 L 24.29 42.33 L 23.76 42.40 L 23.34 43.19 L 21.88 42.76 L 21.47 41.27 L 21.03 41.06 L 20.74 41.11 L 20.36 40.74 L 20.31 39.21 L 16.71 40.13 L 15.71 40.01 L 14.65 39.42 L 14.98 40.50 L 14.83 43.91 L 14.33 43.83 Z"/>
    <path d="M 42.31 70.48 L 42.11 73.17 L 42.23 76.34 L 42.06 76.75 L 42.45 77.33 L 42.26 78.24 L 43.45 82.08 L 43.20 82.58 L 42.47 82.69 L 42.16 83.18 L 41.26 83.15 L 41.82 84.34 L 41.80 84.78 L 41.54 84.69 L 41.45 84.88 L 41.48 85.15 L 41.92 85.41 L 41.52 85.99 L 41.57 86.32 L 41.93 86.69 L 41.73 86.79 L 41.65 87.12 L 41.22 87.38 L 41.13 87.72 L 40.87 87.86 L 40.58 89.26 L 39.95 89.66 L 39.26 89.77 L 38.88 89.64 L 38.09 90.30 L 37.83 91.19 L 37.40 91.44 L 36.50 91.31 L 36.32 91.57 L 37.33 91.90 L 37.29 92.13 L 37.47 92.20 L 37.39 92.55 L 37.55 92.49 L 37.75 92.65 L 37.64 93.08 L 38.15 93.58 L 37.97 93.92 L 37.45 94.07 L 37.55 94.35 L 38.14 94.57 L 38.05 94.84 L 37.78 95.12 L 37.29 95.16 L 37.41 95.35 L 37.38 96.23 L 37.84 96.05 L 38.06 96.53 L 38.65 96.50 L 38.75 96.65 L 38.53 96.99 L 38.66 97.30 L 38.30 97.32 L 37.39 97.77 L 37.40 97.94 L 37.79 98.19 L 37.92 98.78 L 38.45 98.87 L 38.74 99.14 L 38.92 98.90 L 39.43 98.95 L 39.73 98.60 L 40.23 98.52 L 40.45 98.03 L 40.83 98.25 L 41.19 98.16 L 41.17 98.51 L 41.54 98.71 L 41.58 99.21 L 42.04 99.23 L 42.26 99.51 L 42.34 100.34 L 42.69 100.23 L 42.94 100.40 L 42.83 101.58 L 43.64 102.55 L 43.70 101.63 L 43.96 101.33 L 44.17 101.12 L 44.81 101.48 L 44.81 100.86 L 45.22 100.51 L 45.52 100.56 L 44.88 99.86 L 44.77 99.31 L 44.88 97.88 L 45.27 97.66 L 45.48 97.05 L 45.07 96.77 L 44.62 96.86 L 44.49 96.72 L 44.88 96.05 L 44.77 95.43 L 44.91 94.51 L 45.73 94.65 L 45.89 94.55 L 45.82 94.09 L 46.47 94.05 L 47.03 93.77 L 46.46 93.08 L 46.22 93.04 L 46.30 92.77 L 47.68 92.23 L 48.08 91.92 L 48.38 91.10 L 48.50 91.32 L 49.00 91.32 L 49.12 91.17 L 48.94 91.00 L 49.09 90.78 L 49.67 90.60 L 49.49 90.17 L 49.90 90.01 L 49.83 89.33 L 50.21 88.73 L 50.12 87.42 L 49.75 86.49 L 49.45 86.60 L 49.27 86.13 L 48.63 86.19 L 48.52 86.45 L 47.96 86.50 L 47.67 85.61 L 47.16 84.93 L 46.73 84.69 L 46.63 84.12 L 47.12 83.41 L 47.47 83.22 L 47.83 83.85 L 48.14 83.98 L 48.45 83.88 L 48.55 83.33 L 49.09 83.02 L 49.95 81.90 L 49.82 81.06 L 50.98 80.79 L 50.88 80.63 L 51.01 80.36 L 50.78 79.88 L 50.24 79.33 L 50.25 79.06 L 49.99 78.87 L 49.48 79.13 L 49.00 78.09 L 48.70 77.80 L 48.92 77.25 L 48.55 76.01 L 48.37 75.83 L 48.86 75.02 L 48.85 74.15 L 49.09 73.70 L 49.05 72.54 L 48.85 72.27 L 48.53 71.98 L 47.81 72.11 L 46.31 72.85 L 45.22 73.82 L 44.88 73.73 L 44.61 74.00 L 44.20 74.02 L 43.84 73.06 L 43.42 72.61 L 43.36 71.34 L 42.53 70.89 L 42.40 70.63 Z"/>
    <path d="M 67.09 74.76 L 66.21 71.09 L 63.88 66.95 L 63.34 66.39 L 62.78 66.28 L 62.02 65.67 L 61.33 64.44 L 60.89 64.58 L 60.18 63.96 L 59.80 63.21 L 59.66 62.36 L 59.83 61.80 L 60.23 61.74 L 60.01 61.54 L 59.66 61.53 L 59.47 61.05 L 59.00 61.52 L 58.42 61.54 L 58.15 61.92 L 58.42 61.34 L 58.87 61.38 L 59.22 61.12 L 58.97 60.25 L 59.35 59.71 L 59.16 59.55 L 58.69 59.86 L 58.27 59.48 L 58.04 59.47 L 57.51 59.01 L 56.97 58.11 L 56.52 56.43 L 56.74 56.08 L 56.42 56.02 L 56.04 55.36 L 55.78 54.42 L 55.88 54.10 L 55.58 53.79 L 55.04 52.01 L 53.50 51.75 L 53.59 51.52 L 53.44 51.39 L 52.53 51.62 L 52.19 51.90 L 52.04 58.50 L 53.04 60.64 L 53.03 61.22 L 52.08 61.22 L 51.53 60.95 L 51.10 61.24 L 50.46 61.25 L 49.98 61.74 L 49.98 62.67 L 49.71 63.31 L 49.86 64.00 L 49.63 64.60 L 49.77 65.44 L 49.69 65.86 L 50.11 67.10 L 50.50 67.34 L 50.76 67.19 L 52.62 67.27 L 52.70 67.68 L 53.86 69.23 L 54.32 69.54 L 56.16 69.97 L 56.22 70.64 L 55.80 72.11 L 56.35 72.91 L 57.75 73.54 L 57.61 73.73 L 58.31 73.92 L 61.30 73.94 L 62.21 73.44 L 62.16 74.11 L 62.53 75.00 L 62.43 75.33 L 62.62 77.18 L 62.82 77.11 L 62.93 76.73 L 63.42 76.52 L 64.44 75.50 L 65.50 75.37 L 65.96 74.72 L 66.47 75.05 Z"/>
    <path d="M 60.98 101.43 L 61.59 91.57 L 61.84 90.18 L 61.26 89.61 L 61.36 89.04 L 61.15 88.88 L 60.95 88.23 L 61.31 87.53 L 61.16 86.96 L 60.62 86.93 L 58.85 86.18 L 58.76 86.32 L 58.23 85.94 L 58.17 84.95 L 57.78 84.41 L 58.44 83.14 L 59.35 82.55 L 58.78 81.88 L 58.46 81.80 L 58.59 81.48 L 58.33 80.39 L 57.15 79.37 L 57.50 78.98 L 56.96 77.35 L 57.10 76.50 L 56.65 76.24 L 57.15 75.52 L 56.48 75.41 L 55.46 76.08 L 55.03 76.16 L 54.98 76.65 L 54.48 76.91 L 54.07 76.83 L 54.03 77.21 L 54.41 78.01 L 54.06 78.37 L 53.78 78.40 L 53.84 78.82 L 53.17 79.05 L 52.46 78.99 L 52.38 79.72 L 52.59 80.13 L 52.41 80.76 L 52.53 81.20 L 52.00 81.37 L 51.42 81.87 L 51.45 81.63 L 51.18 81.42 L 51.23 81.24 L 50.98 80.79 L 49.82 81.06 L 49.95 81.90 L 49.09 83.02 L 48.55 83.33 L 48.45 83.88 L 48.14 83.98 L 47.83 83.85 L 47.47 83.22 L 47.12 83.41 L 46.63 84.12 L 46.73 84.69 L 47.16 84.93 L 47.67 85.61 L 47.96 86.50 L 48.52 86.45 L 48.63 86.19 L 49.27 86.13 L 49.45 86.60 L 49.75 86.49 L 50.12 87.42 L 50.26 88.33 L 50.21 88.73 L 49.83 89.33 L 49.90 90.01 L 49.49 90.17 L 49.67 90.60 L 49.09 90.78 L 48.94 91.00 L 49.12 91.17 L 49.00 91.32 L 48.50 91.32 L 48.38 91.10 L 48.08 91.92 L 47.68 92.23 L 46.30 92.77 L 46.22 93.04 L 46.46 93.08 L 47.05 93.72 L 46.86 93.93 L 45.82 94.09 L 45.89 94.55 L 45.73 94.65 L 44.91 94.51 L 44.77 95.43 L 44.88 96.05 L 44.49 96.72 L 44.62 96.86 L 45.07 96.77 L 45.48 97.05 L 45.27 97.66 L 44.88 97.88 L 44.77 99.31 L 44.88 99.86 L 45.52 100.56 L 45.22 100.51 L 44.81 100.86 L 44.81 101.48 L 44.17 101.12 L 43.96 101.33 L 43.70 101.63 L 43.64 102.55 L 42.83 101.58 L 42.94 100.40 L 42.69 100.23 L 42.34 100.34 L 42.26 99.51 L 42.04 99.23 L 41.58 99.21 L 41.54 98.71 L 41.17 98.51 L 41.19 98.16 L 40.89 98.14 L 40.38 98.71 L 40.11 99.69 L 39.72 99.91 L 39.28 100.53 L 39.31 101.02 L 39.10 101.05 L 39.18 101.38 L 38.99 101.45 L 38.84 102.01 L 38.92 102.33 L 38.21 103.32 L 37.86 104.10 L 38.31 105.10 L 38.11 105.57 L 38.30 105.76 L 38.16 105.97 L 38.35 106.56 L 38.19 106.71 L 38.89 107.66 L 38.97 108.04 L 40.09 108.43 L 40.07 108.62 L 40.27 108.76 L 40.19 109.08 L 40.63 109.83 L 41.66 109.32 L 42.01 108.98 L 43.50 108.40 L 43.63 107.98 L 43.41 107.69 L 43.18 107.68 L 43.21 107.13 L 43.35 106.88 L 44.06 107.02 L 44.43 106.56 L 44.46 106.11 L 44.79 106.43 L 45.06 106.06 L 45.60 106.05 L 45.96 106.22 L 47.02 106.14 L 47.25 106.84 L 47.42 106.78 L 47.61 106.99 L 47.88 106.98 L 48.00 106.68 L 48.42 106.60 L 49.21 107.74 L 49.61 108.02 L 49.51 108.26 L 49.64 108.40 L 50.47 108.52 L 51.06 108.10 L 51.21 107.68 L 53.84 107.05 L 54.02 106.82 L 54.34 106.81 L 54.61 106.33 L 54.83 106.58 L 55.40 106.49 L 55.63 106.23 L 55.99 106.18 L 56.95 106.53 L 57.18 106.19 L 57.07 105.32 L 57.36 104.86 L 57.16 104.60 L 57.24 103.93 L 58.48 103.22 L 58.75 102.74 L 59.16 102.72 L 59.71 102.19 L 60.18 102.30 L 60.88 101.77 Z"/>
    <path d="M 50.11 67.10 L 49.69 65.86 L 49.77 65.44 L 49.63 64.60 L 49.86 64.00 L 49.71 63.31 L 49.98 62.67 L 49.98 61.74 L 50.46 61.25 L 51.10 61.24 L 51.53 60.95 L 52.08 61.22 L 53.03 61.22 L 53.04 60.64 L 52.04 58.50 L 52.19 51.90 L 51.50 51.63 L 51.04 52.22 L 50.83 52.23 L 50.93 52.41 L 50.62 52.49 L 50.56 52.70 L 50.38 52.67 L 50.41 53.15 L 50.00 53.61 L 50.16 54.06 L 49.91 54.21 L 49.85 54.73 L 49.12 54.96 L 48.65 54.80 L 49.09 54.54 L 49.28 54.05 L 49.02 53.92 L 48.93 53.53 L 49.07 52.98 L 48.87 52.51 L 48.50 52.63 L 47.88 52.42 L 47.09 51.64 L 46.64 51.58 L 46.09 51.78 L 45.26 51.32 L 44.44 51.30 L 44.04 51.11 L 42.63 51.28 L 42.37 50.11 L 41.85 49.78 L 41.54 49.80 L 41.21 49.22 L 40.91 49.14 L 40.34 49.70 L 39.97 51.05 L 37.17 51.12 L 36.68 52.52 L 36.61 53.32 L 35.83 54.91 L 35.81 57.34 L 36.36 57.42 L 35.84 58.05 L 35.55 58.71 L 36.22 59.50 L 36.43 59.52 L 36.40 60.31 L 36.68 60.48 L 36.99 60.53 L 37.01 60.06 L 37.48 59.86 L 37.80 60.22 L 38.22 60.19 L 38.62 60.47 L 38.05 60.72 L 37.62 61.61 L 37.36 63.75 L 37.11 64.64 L 36.84 64.78 L 36.91 65.15 L 36.61 65.29 L 36.49 65.13 L 36.11 65.23 L 35.89 65.52 L 36.03 65.68 L 35.97 67.25 L 36.28 68.20 L 36.14 68.54 L 35.88 68.39 L 36.41 68.91 L 37.18 68.86 L 37.31 69.09 L 37.66 68.85 L 38.13 68.81 L 38.61 68.22 L 38.68 68.52 L 39.12 68.57 L 39.32 68.86 L 39.51 67.81 L 40.19 67.79 L 40.82 68.01 L 42.38 67.78 L 42.64 67.61 L 44.42 67.70 L 45.00 67.34 L 45.76 67.51 L 46.45 68.55 L 47.26 68.96 L 47.46 68.86 L 48.82 69.41 L 49.30 69.83 L 49.50 69.63 L 49.56 69.08 L 50.05 68.85 L 50.05 67.86 L 49.91 67.48 Z"/>
    <path d="M 9.48 89.61 L 9.43 89.93 L 8.99 90.15 L 9.10 90.36 L 8.82 90.84 L 8.82 90.71 L 8.68 90.77 L 8.78 90.42 L 8.59 90.15 L 8.73 90.32 L 8.68 90.61 L 8.62 90.49 L 8.57 90.63 L 8.11 90.61 L 8.11 90.26 L 8.33 90.00 L 8.09 90.25 L 8.08 90.61 L 8.61 90.82 L 9.13 92.79 L 9.28 94.19 L 10.36 97.39 L 10.49 97.32 L 10.41 96.90 L 9.98 95.75 L 10.11 95.60 L 10.86 96.04 L 10.90 96.41 L 11.69 96.42 L 11.91 96.06 L 13.06 96.03 L 14.38 94.73 L 14.96 95.14 L 15.28 95.10 L 15.67 94.42 L 15.96 94.48 L 16.24 94.81 L 16.48 95.71 L 16.89 95.79 L 17.06 95.38 L 16.79 94.76 L 17.30 94.44 L 17.76 94.20 L 18.20 94.49 L 18.50 94.33 L 18.70 94.50 L 19.32 94.34 L 19.09 93.39 L 18.52 93.14 L 18.93 91.97 L 19.26 91.84 L 19.61 91.42 L 19.51 90.83 L 19.87 90.87 L 19.95 90.74 L 19.77 89.72 L 18.35 89.60 L 18.28 89.86 L 17.03 89.74 L 16.94 90.02 L 16.60 90.09 L 16.49 90.36 L 16.26 90.43 L 16.10 91.59 L 15.52 91.71 L 15.24 91.57 L 15.13 91.74 L 13.94 91.22 L 13.74 90.56 L 13.14 90.65 L 12.93 90.91 L 12.00 90.67 L 11.69 90.82 L 11.40 90.47 L 11.07 90.40 L 10.86 90.60 L 10.70 90.46 L 10.32 90.54 L 10.37 90.30 L 9.76 90.23 L 9.93 89.77 L 9.76 89.54 Z"/>
    <path d="M 18.65 89.65 L 18.70 89.11 L 18.16 87.25 L 18.58 86.54 L 18.91 86.33 L 18.83 85.88 L 19.15 85.96 L 19.24 85.52 L 19.64 85.08 L 18.77 84.89 L 18.16 85.23 L 17.92 84.49 L 17.88 83.57 L 17.64 83.41 L 17.84 83.27 L 18.06 83.52 L 18.10 83.27 L 18.80 83.18 L 18.87 82.00 L 19.27 81.60 L 18.98 81.18 L 18.82 81.25 L 18.34 80.54 L 17.61 80.01 L 17.75 79.74 L 17.47 79.42 L 17.02 79.20 L 15.09 80.58 L 14.95 80.57 L 14.72 80.12 L 14.25 80.03 L 14.13 79.57 L 13.78 79.67 L 13.54 79.48 L 12.99 79.91 L 13.17 80.01 L 12.81 80.06 L 12.70 80.31 L 11.91 80.40 L 12.04 80.61 L 11.74 80.88 L 11.09 80.56 L 11.19 80.94 L 11.11 80.77 L 10.82 80.79 L 10.86 81.00 L 10.61 81.13 L 10.60 80.68 L 10.54 80.87 L 10.35 80.66 L 10.31 80.85 L 9.93 80.88 L 9.66 80.62 L 9.38 80.97 L 9.15 80.98 L 8.99 80.78 L 8.96 80.91 L 8.66 80.89 L 8.57 82.36 L 8.26 82.84 L 8.60 82.87 L 8.49 83.21 L 8.84 83.09 L 8.97 83.21 L 9.36 83.97 L 9.49 85.50 L 9.62 85.62 L 9.35 85.66 L 9.27 85.26 L 9.12 85.86 L 9.00 85.83 L 9.08 85.99 L 8.74 85.69 L 8.81 85.43 L 8.57 85.09 L 8.56 84.67 L 8.10 83.61 L 8.31 83.01 L 8.18 82.82 L 7.91 82.96 L 8.66 85.66 L 9.48 89.61 L 9.89 89.60 L 9.76 90.02 L 9.89 90.34 L 10.37 90.30 L 10.32 90.54 L 10.70 90.46 L 10.86 90.60 L 11.07 90.40 L 11.40 90.47 L 11.69 90.82 L 12.00 90.67 L 12.93 90.91 L 13.14 90.65 L 13.74 90.56 L 13.94 91.22 L 15.13 91.74 L 15.24 91.57 L 15.52 91.71 L 16.10 91.59 L 16.26 90.43 L 16.49 90.36 L 16.60 90.09 L 16.94 90.02 L 17.03 89.74 L 18.28 89.86 L 18.35 89.60 Z"/>
    <path d="M 24.63 106.01 L 24.60 105.75 L 22.61 102.79 L 22.36 102.64 L 22.09 101.90 L 22.66 101.69 L 22.32 100.96 L 21.71 100.31 L 20.89 100.04 L 20.73 99.74 L 20.73 99.11 L 19.73 98.12 L 19.23 97.07 L 19.42 96.97 L 19.04 96.07 L 19.03 95.46 L 18.70 95.01 L 18.50 94.33 L 18.20 94.49 L 17.76 94.20 L 16.79 94.76 L 17.06 95.38 L 16.89 95.79 L 16.48 95.71 L 16.24 94.81 L 15.96 94.48 L 15.67 94.42 L 15.28 95.10 L 14.96 95.14 L 14.38 94.73 L 13.06 96.03 L 11.91 96.06 L 11.69 96.42 L 10.90 96.41 L 10.86 96.04 L 10.31 95.62 L 10.02 95.65 L 10.41 96.90 L 10.49 97.32 L 10.36 97.39 L 11.42 99.62 L 12.79 103.46 L 12.63 103.64 L 12.83 104.47 L 12.55 104.68 L 12.58 105.00 L 13.31 105.97 L 13.57 105.67 L 13.91 105.76 L 14.23 106.18 L 15.16 106.52 L 15.40 106.82 L 15.93 106.71 L 16.71 107.18 L 17.21 107.78 L 17.92 107.74 L 18.95 108.11 L 19.48 107.96 L 19.46 107.60 L 19.62 107.61 L 19.78 107.36 L 20.48 107.46 L 21.51 108.27 L 22.13 108.99 L 22.25 108.68 L 21.94 107.64 L 21.94 107.01 L 22.20 106.84 L 22.62 106.86 L 24.27 105.97 L 24.58 106.03 Z"/>
    <path d="M 19.61 91.42 L 19.97 91.03 L 20.17 91.24 L 20.25 91.86 L 20.48 91.73 L 20.77 91.91 L 21.30 92.72 L 21.70 92.84 L 21.78 93.27 L 22.55 93.07 L 23.08 93.84 L 23.43 94.02 L 23.93 93.44 L 24.58 93.31 L 24.86 93.44 L 25.19 93.15 L 25.90 93.74 L 26.14 93.49 L 26.72 93.94 L 26.92 93.83 L 28.03 93.98 L 28.49 93.51 L 28.16 93.22 L 28.00 92.79 L 28.09 92.34 L 27.89 92.16 L 26.97 91.95 L 26.16 91.55 L 26.30 91.29 L 26.30 90.30 L 26.54 90.02 L 26.49 89.74 L 26.15 89.41 L 26.17 89.21 L 26.68 89.01 L 27.18 88.48 L 26.99 87.59 L 27.29 87.06 L 27.10 87.05 L 26.79 85.99 L 26.53 85.70 L 26.84 85.38 L 28.17 85.20 L 28.46 84.58 L 29.18 84.54 L 29.02 84.20 L 29.58 83.97 L 29.48 83.70 L 28.54 82.83 L 28.81 82.47 L 28.71 81.86 L 28.27 81.35 L 27.54 81.18 L 27.44 81.00 L 27.58 80.92 L 27.60 80.56 L 26.82 79.72 L 26.37 79.55 L 25.97 79.15 L 25.84 78.47 L 25.61 78.43 L 25.68 77.94 L 25.53 77.65 L 24.96 77.25 L 23.62 77.51 L 23.88 78.30 L 23.48 78.59 L 23.71 78.94 L 23.36 79.48 L 22.86 79.25 L 22.72 79.48 L 21.88 79.66 L 21.61 79.56 L 20.88 79.97 L 19.67 80.85 L 19.38 81.32 L 19.13 81.34 L 19.27 81.74 L 18.87 82.00 L 18.80 83.18 L 18.10 83.27 L 18.06 83.52 L 17.84 83.27 L 17.64 83.41 L 17.88 83.57 L 17.92 84.49 L 18.16 85.23 L 18.77 84.89 L 19.64 85.08 L 19.24 85.52 L 19.15 85.96 L 18.83 85.88 L 18.91 86.33 L 18.58 86.54 L 18.16 87.25 L 18.70 89.11 L 18.65 89.65 L 19.48 89.62 L 19.80 89.80 L 19.95 90.74 L 19.87 90.87 L 19.51 90.83 L 19.63 91.21 Z"/>
    <path d="M 16.36 53.52 L 16.47 53.76 L 16.31 54.42 L 16.59 55.17 L 16.75 56.52 L 17.14 57.03 L 17.88 57.41 L 17.59 59.18 L 17.77 59.45 L 17.28 60.41 L 17.73 61.10 L 17.27 61.30 L 16.96 60.93 L 16.62 60.85 L 16.56 61.46 L 16.33 61.61 L 16.27 61.91 L 16.09 61.86 L 16.11 61.70 L 15.48 61.93 L 15.54 62.55 L 15.32 62.66 L 15.30 63.13 L 14.91 63.12 L 14.47 63.50 L 14.45 63.98 L 13.52 64.37 L 13.68 64.82 L 13.31 64.92 L 13.17 65.50 L 13.41 65.93 L 13.15 66.38 L 13.37 66.80 L 13.30 66.98 L 12.67 67.31 L 12.62 67.55 L 12.01 67.66 L 11.98 68.20 L 11.59 68.36 L 12.25 68.65 L 12.14 68.99 L 11.80 68.97 L 11.74 68.79 L 11.23 69.01 L 11.28 69.28 L 11.08 69.57 L 11.38 69.72 L 11.05 69.88 L 11.01 70.22 L 10.55 70.73 L 10.64 71.28 L 10.39 72.41 L 10.53 74.01 L 11.49 78.64 L 11.61 80.80 L 11.74 80.88 L 11.77 80.71 L 12.00 80.68 L 11.88 80.43 L 12.07 80.28 L 12.40 80.42 L 12.70 80.31 L 12.81 80.06 L 13.17 80.01 L 12.99 79.91 L 13.54 79.48 L 13.78 79.67 L 14.13 79.57 L 14.25 80.03 L 14.72 80.12 L 14.95 80.57 L 15.09 80.58 L 17.02 79.20 L 17.47 79.42 L 17.75 79.74 L 17.61 80.01 L 18.34 80.54 L 18.82 81.25 L 18.98 81.18 L 19.13 81.34 L 19.38 81.32 L 19.67 80.85 L 21.61 79.56 L 21.88 79.66 L 22.72 79.48 L 22.86 79.25 L 23.36 79.48 L 23.71 78.94 L 23.48 78.59 L 23.88 78.30 L 23.62 77.51 L 24.96 77.25 L 25.53 77.65 L 25.68 77.94 L 25.61 78.43 L 25.96 78.34 L 26.29 78.53 L 26.53 78.41 L 26.88 78.62 L 26.91 78.43 L 26.71 78.28 L 27.33 77.33 L 27.01 76.82 L 27.27 76.76 L 28.49 77.56 L 28.68 77.46 L 28.65 76.74 L 29.02 76.78 L 29.01 76.60 L 29.28 76.68 L 29.29 76.50 L 29.60 76.70 L 29.82 76.57 L 29.34 75.67 L 29.78 75.67 L 29.86 75.48 L 30.11 75.44 L 30.07 75.09 L 30.41 74.81 L 30.25 74.56 L 30.34 73.92 L 30.19 73.69 L 30.02 73.77 L 30.10 73.46 L 29.71 73.04 L 29.71 72.67 L 30.00 72.02 L 30.37 71.96 L 30.19 71.40 L 30.46 71.07 L 30.11 70.60 L 30.10 70.30 L 29.61 69.97 L 29.49 69.40 L 29.69 69.38 L 29.73 69.04 L 29.62 68.10 L 29.23 67.99 L 29.25 67.10 L 29.02 66.94 L 28.73 66.11 L 28.26 66.05 L 28.05 65.02 L 28.14 64.81 L 27.67 64.61 L 27.53 64.08 L 27.23 63.81 L 27.55 63.00 L 27.39 62.45 L 27.14 62.19 L 27.00 60.99 L 26.59 60.70 L 26.18 60.91 L 25.74 60.75 L 25.96 60.47 L 25.64 59.15 L 25.76 58.08 L 25.33 57.74 L 24.96 57.95 L 24.30 57.66 L 22.47 55.90 L 21.23 55.95 L 20.78 55.42 L 19.71 55.11 L 19.47 54.82 L 18.91 54.88 L 18.78 54.57 L 18.24 54.51 L 17.81 54.17 L 16.98 54.00 L 16.53 53.57 Z"/>
    <path d="M 6.82 51.60 L 6.87 51.62 L 6.92 51.58 L 6.98 51.43 L 6.92 51.42 L 6.69 51.14 L 6.62 51.10 L 6.60 51.18 L 6.66 51.38 Z"/>
    <path d="M 10.96 42.56 L 10.84 43.12 L 9.51 43.48 L 9.25 45.30 L 9.30 46.00 L 8.82 46.31 L 8.69 46.83 L 8.79 48.97 L 8.58 49.11 L 8.38 49.73 L 8.53 50.14 L 7.92 51.44 L 7.72 52.29 L 7.10 52.45 L 7.52 52.53 L 7.44 52.78 L 7.19 52.61 L 8.01 53.36 L 7.95 54.34 L 8.01 54.56 L 8.43 54.87 L 8.47 55.31 L 8.03 55.73 L 7.87 56.40 L 7.50 56.87 L 7.17 56.86 L 7.35 57.23 L 7.10 57.13 L 8.17 58.36 L 8.47 58.95 L 8.41 59.34 L 7.99 59.46 L 8.20 60.25 L 8.06 60.61 L 8.18 61.65 L 8.02 61.92 L 8.04 60.52 L 7.82 60.82 L 7.68 60.77 L 8.06 60.33 L 8.09 59.97 L 6.95 59.98 L 6.15 59.73 L 5.83 59.55 L 5.54 58.96 L 5.79 58.31 L 5.69 57.81 L 6.10 57.49 L 5.56 57.21 L 5.40 56.85 L 5.52 56.03 L 5.25 55.73 L 5.37 55.17 L 5.62 55.10 L 5.83 54.43 L 5.74 54.15 L 5.91 53.99 L 5.57 53.39 L 6.11 52.72 L 6.34 52.97 L 6.53 52.81 L 6.40 52.21 L 6.73 51.62 L 6.45 51.60 L 5.64 52.53 L 5.39 52.61 L 5.65 52.19 L 5.62 51.95 L 6.02 52.02 L 6.34 51.43 L 6.13 51.30 L 6.12 51.54 L 5.96 51.53 L 6.19 51.18 L 6.06 50.77 L 6.45 50.44 L 6.19 50.38 L 6.78 49.05 L 6.99 48.40 L 6.80 48.20 L 7.00 47.99 L 6.73 48.14 L 6.61 48.46 L 6.56 49.21 L 5.74 51.24 L 5.49 52.39 L 4.75 52.92 L 4.85 52.94 L 4.33 53.14 L 4.73 52.90 L 4.54 52.87 L 4.24 53.13 L 4.63 55.01 L 4.50 55.96 L 4.67 56.57 L 4.63 57.68 L 5.79 61.32 L 7.25 67.68 L 7.43 70.03 L 7.33 70.84 L 7.00 71.03 L 7.10 73.03 L 8.66 80.89 L 8.96 80.91 L 8.99 80.78 L 9.15 80.98 L 9.38 80.97 L 9.66 80.62 L 9.93 80.88 L 10.31 80.85 L 10.35 80.66 L 10.54 80.87 L 10.60 80.68 L 10.61 81.13 L 10.86 81.00 L 10.82 80.79 L 11.11 80.77 L 11.19 80.94 L 11.09 80.56 L 11.61 80.80 L 11.63 80.67 L 11.49 78.64 L 10.53 74.01 L 10.39 72.41 L 10.64 71.28 L 10.55 70.73 L 11.01 70.22 L 11.05 69.88 L 11.38 69.72 L 11.08 69.57 L 11.28 69.28 L 11.23 69.01 L 11.74 68.79 L 11.80 68.97 L 12.14 68.99 L 12.25 68.65 L 11.59 68.36 L 11.98 68.20 L 12.01 67.66 L 12.62 67.55 L 12.67 67.31 L 13.30 66.98 L 13.37 66.80 L 13.15 66.38 L 13.41 65.93 L 13.17 65.50 L 13.31 64.92 L 13.68 64.82 L 13.52 64.37 L 14.45 63.98 L 14.47 63.50 L 14.91 63.12 L 15.30 63.13 L 15.32 62.66 L 15.54 62.55 L 15.48 61.93 L 16.11 61.70 L 16.09 61.86 L 16.27 61.91 L 16.33 61.61 L 16.56 61.46 L 16.62 60.85 L 16.96 60.93 L 17.27 61.30 L 17.73 61.10 L 17.28 60.41 L 17.77 59.45 L 17.59 59.18 L 17.88 57.41 L 17.14 57.03 L 16.75 56.52 L 16.59 55.17 L 16.31 54.42 L 16.47 53.76 L 16.20 53.16 L 15.90 53.13 L 15.69 52.75 L 15.17 52.86 L 14.46 52.32 L 14.15 52.64 L 13.34 52.60 L 13.21 51.84 L 12.80 51.15 L 12.59 49.38 L 11.94 48.43 L 12.04 47.69 L 12.66 47.59 L 13.06 47.11 L 13.05 46.83 L 13.92 46.18 L 14.28 45.58 L 14.61 44.75 L 14.30 43.75 L 13.58 43.50 L 13.36 43.24 L 13.05 43.29 L 12.67 42.99 L 12.30 43.07 L 11.83 42.80 L 11.49 42.90 L 11.19 42.65 Z"/>
    <path d="M 7.44 49.28 L 7.61 49.89 L 7.75 49.94 L 7.82 49.85 L 7.61 49.76 L 7.79 49.50 L 7.54 49.41 L 7.75 49.36 L 7.51 49.36 Z"/>
    <path d="M 7.35 45.98 L 7.61 46.06 L 7.13 45.66 L 7.17 45.45 L 6.99 45.38 L 6.82 44.77 L 7.04 44.26 L 6.99 43.56 L 7.01 43.96 L 6.75 44.62 L 7.18 45.76 Z"/>
    <path d="M 28.01 107.73 L 29.15 107.53 L 29.15 107.12 L 29.47 107.09 L 29.62 106.88 L 29.78 107.08 L 30.09 106.94 L 30.48 107.04 L 31.02 106.84 L 31.67 106.88 L 31.63 107.62 L 31.31 107.96 L 31.44 108.37 L 32.93 108.14 L 32.99 108.55 L 32.81 108.63 L 33.34 109.08 L 33.18 109.17 L 33.19 109.55 L 34.19 109.54 L 36.98 110.70 L 37.77 110.75 L 38.75 110.56 L 39.09 110.71 L 39.51 111.34 L 39.78 111.24 L 40.31 111.56 L 40.92 111.50 L 41.18 111.86 L 41.36 111.62 L 41.50 111.66 L 41.57 111.54 L 41.24 110.93 L 41.22 110.60 L 41.01 110.53 L 40.92 110.08 L 40.19 109.08 L 40.27 108.76 L 40.07 108.62 L 40.09 108.43 L 38.97 108.04 L 38.89 107.66 L 38.19 106.71 L 38.35 106.56 L 38.16 105.97 L 38.30 105.76 L 38.11 105.57 L 38.31 105.10 L 37.86 104.10 L 38.21 103.32 L 38.92 102.33 L 38.84 102.01 L 38.99 101.45 L 39.18 101.38 L 39.10 101.05 L 39.31 101.02 L 39.28 100.53 L 39.72 99.91 L 40.11 99.69 L 40.38 98.71 L 40.83 98.25 L 40.45 98.03 L 40.23 98.52 L 39.73 98.60 L 39.43 98.95 L 38.92 98.90 L 38.74 99.14 L 38.45 98.87 L 37.92 98.78 L 37.79 98.19 L 37.40 97.94 L 37.39 97.77 L 38.30 97.32 L 38.66 97.30 L 38.53 96.99 L 38.75 96.65 L 38.65 96.50 L 38.06 96.53 L 37.84 96.05 L 37.38 96.23 L 37.41 95.35 L 37.29 95.16 L 36.72 95.69 L 36.28 95.56 L 35.40 96.15 L 35.01 96.00 L 34.26 96.25 L 32.92 96.04 L 32.71 96.36 L 32.16 96.30 L 30.31 95.99 L 29.46 95.64 L 28.96 95.86 L 27.98 95.37 L 27.81 95.02 L 28.22 94.67 L 27.92 94.45 L 28.03 93.98 L 26.92 93.83 L 26.72 93.94 L 26.14 93.49 L 25.90 93.74 L 25.19 93.15 L 24.86 93.44 L 24.58 93.31 L 23.93 93.44 L 23.43 94.02 L 23.08 93.84 L 22.55 93.07 L 21.78 93.27 L 21.70 92.84 L 21.30 92.72 L 20.77 91.91 L 20.48 91.73 L 20.25 91.86 L 20.17 91.24 L 19.97 91.03 L 19.26 91.84 L 18.93 91.97 L 18.52 93.14 L 19.09 93.39 L 19.33 93.98 L 19.27 94.44 L 18.88 94.36 L 18.57 94.56 L 19.03 95.46 L 19.04 96.07 L 19.39 96.74 L 19.42 96.97 L 19.23 97.07 L 19.73 98.12 L 20.73 99.11 L 20.73 99.74 L 20.89 100.04 L 21.71 100.31 L 22.32 100.96 L 22.66 101.69 L 22.09 101.90 L 22.36 102.64 L 22.61 102.79 L 24.77 106.16 L 25.75 106.99 L 26.12 107.08 L 26.39 106.92 L 27.12 107.18 L 27.32 107.41 L 27.97 107.43 Z"/>
    <path d="M 42.20 74.53 L 40.96 74.49 L 40.54 75.32 L 40.28 75.22 L 40.19 75.41 L 39.97 74.93 L 39.60 74.97 L 39.39 75.25 L 38.89 74.93 L 38.52 75.00 L 38.21 75.27 L 37.64 75.37 L 37.24 75.73 L 37.29 75.95 L 36.75 76.32 L 36.40 76.25 L 35.87 75.70 L 35.65 75.70 L 35.26 75.26 L 35.04 75.23 L 34.90 74.93 L 34.11 75.44 L 34.43 76.37 L 34.25 77.28 L 34.03 77.53 L 32.71 77.60 L 30.32 75.94 L 30.28 75.55 L 30.11 75.44 L 29.86 75.48 L 29.78 75.67 L 29.34 75.67 L 29.82 76.57 L 29.60 76.70 L 29.29 76.50 L 29.28 76.68 L 29.01 76.60 L 29.02 76.78 L 28.65 76.74 L 28.68 77.46 L 28.49 77.56 L 27.27 76.76 L 27.01 76.82 L 27.33 77.33 L 26.71 78.28 L 26.96 78.55 L 26.76 78.59 L 26.53 78.41 L 26.29 78.53 L 25.96 78.34 L 25.84 78.47 L 25.97 79.15 L 26.37 79.55 L 26.82 79.72 L 27.60 80.56 L 27.58 80.92 L 27.44 81.00 L 27.54 81.18 L 28.27 81.35 L 28.71 81.86 L 28.81 82.47 L 28.54 82.83 L 29.48 83.70 L 29.58 83.97 L 29.02 84.20 L 29.18 84.54 L 28.46 84.58 L 28.17 85.20 L 26.84 85.38 L 26.53 85.70 L 26.79 85.99 L 27.10 87.05 L 27.29 87.06 L 27.08 87.29 L 26.99 88.06 L 27.07 88.15 L 27.36 87.89 L 27.83 88.22 L 28.07 88.22 L 28.62 89.52 L 29.34 90.12 L 29.72 90.75 L 30.46 90.64 L 30.45 90.19 L 30.80 90.03 L 30.94 89.41 L 31.19 89.15 L 30.68 88.42 L 29.98 87.80 L 29.69 87.07 L 29.33 87.25 L 29.37 86.82 L 29.76 86.57 L 29.96 86.72 L 30.27 86.56 L 30.46 86.79 L 31.92 86.64 L 32.23 86.05 L 32.55 85.94 L 33.74 86.25 L 34.96 84.29 L 35.23 84.20 L 36.17 83.12 L 36.05 81.98 L 35.64 81.55 L 35.62 80.89 L 37.09 82.29 L 37.10 82.92 L 37.72 83.23 L 38.53 83.36 L 39.42 83.23 L 39.55 83.64 L 39.95 83.10 L 41.24 83.01 L 42.16 83.18 L 42.47 82.69 L 43.20 82.58 L 43.45 82.08 L 42.26 78.24 L 42.45 77.33 L 42.06 76.75 L 42.23 76.34 L 42.23 74.67 Z"/>
    <path d="M 42.64 67.61 L 42.38 67.78 L 40.82 68.01 L 40.19 67.79 L 39.51 67.81 L 39.32 68.86 L 39.12 68.57 L 38.68 68.52 L 38.61 68.22 L 38.13 68.81 L 37.66 68.85 L 37.31 69.09 L 37.18 68.86 L 36.41 68.91 L 35.88 68.39 L 36.14 68.54 L 36.28 68.20 L 35.97 67.25 L 36.03 65.68 L 35.89 65.52 L 36.11 65.23 L 36.49 65.13 L 36.61 65.29 L 36.91 65.15 L 36.84 64.78 L 37.11 64.64 L 37.36 63.75 L 37.62 61.61 L 38.05 60.72 L 38.62 60.47 L 38.22 60.19 L 37.80 60.22 L 37.48 59.86 L 37.01 60.06 L 36.99 60.53 L 36.68 60.48 L 36.40 60.31 L 36.43 59.52 L 36.22 59.50 L 35.74 59.00 L 34.25 59.61 L 33.55 60.65 L 33.14 60.45 L 32.85 60.55 L 32.68 60.95 L 32.71 61.88 L 32.07 62.33 L 32.27 62.67 L 31.79 62.85 L 31.79 63.26 L 31.11 63.64 L 30.91 63.57 L 30.82 63.30 L 30.40 63.27 L 30.08 63.84 L 28.87 64.48 L 28.15 64.52 L 28.05 65.02 L 28.26 66.05 L 28.73 66.11 L 29.02 66.94 L 29.25 67.10 L 29.23 67.99 L 29.62 68.10 L 29.74 69.25 L 29.49 69.40 L 29.61 69.97 L 30.10 70.30 L 30.11 70.60 L 30.46 71.07 L 30.19 71.40 L 30.37 71.96 L 30.00 72.02 L 29.71 72.67 L 29.71 73.04 L 30.10 73.46 L 30.02 73.77 L 30.19 73.69 L 30.34 73.92 L 30.25 74.56 L 30.41 74.81 L 30.07 75.09 L 30.11 75.44 L 30.28 75.55 L 30.32 75.94 L 32.71 77.60 L 34.03 77.53 L 34.25 77.28 L 34.43 76.37 L 34.11 75.44 L 34.90 74.93 L 35.04 75.23 L 35.26 75.26 L 35.65 75.70 L 35.87 75.70 L 36.40 76.25 L 36.75 76.32 L 37.29 75.95 L 37.24 75.73 L 37.64 75.37 L 38.21 75.27 L 38.52 75.00 L 38.89 74.93 L 39.39 75.25 L 39.60 74.97 L 39.97 74.93 L 40.19 75.41 L 40.28 75.22 L 40.54 75.32 L 40.96 74.49 L 42.20 74.53 L 42.12 72.21 L 42.42 69.94 L 42.80 69.40 L 42.59 68.59 L 42.72 67.90 Z"/>
    <path d="M 41.36 83.06 L 39.95 83.10 L 39.55 83.64 L 39.42 83.23 L 38.53 83.36 L 37.36 83.10 L 37.10 82.92 L 37.09 82.29 L 35.62 80.89 L 35.64 81.55 L 36.05 81.98 L 36.17 83.12 L 35.23 84.20 L 34.96 84.29 L 33.74 86.25 L 32.55 85.94 L 32.23 86.05 L 31.92 86.64 L 30.46 86.79 L 30.27 86.56 L 29.96 86.72 L 29.76 86.57 L 29.37 86.82 L 29.33 87.25 L 29.69 87.07 L 29.98 87.80 L 30.68 88.42 L 31.19 89.15 L 30.94 89.41 L 30.80 90.03 L 30.45 90.19 L 30.46 90.64 L 29.72 90.75 L 29.34 90.12 L 28.62 89.52 L 28.07 88.22 L 27.83 88.22 L 27.36 87.89 L 27.07 88.15 L 27.18 88.48 L 26.68 89.01 L 26.17 89.21 L 26.15 89.41 L 26.49 89.74 L 26.54 90.02 L 26.30 90.30 L 26.30 91.29 L 26.16 91.55 L 26.97 91.95 L 27.56 92.00 L 28.09 92.34 L 28.00 92.79 L 28.16 93.22 L 28.49 93.51 L 27.90 94.33 L 28.22 94.67 L 27.81 95.02 L 27.98 95.37 L 28.96 95.86 L 29.46 95.64 L 30.31 95.99 L 32.71 96.36 L 32.92 96.04 L 34.26 96.25 L 35.01 96.00 L 35.40 96.15 L 36.28 95.56 L 36.72 95.69 L 37.47 95.04 L 37.78 95.12 L 38.14 94.57 L 37.55 94.35 L 37.45 94.07 L 37.97 93.92 L 38.15 93.58 L 37.64 93.08 L 37.75 92.65 L 37.55 92.49 L 37.39 92.55 L 37.47 92.20 L 37.29 92.13 L 37.33 91.90 L 36.38 91.65 L 36.35 91.47 L 36.50 91.31 L 37.52 91.39 L 37.94 91.07 L 38.09 90.30 L 38.88 89.64 L 39.26 89.77 L 39.95 89.66 L 40.58 89.26 L 40.87 87.86 L 41.13 87.72 L 41.22 87.38 L 41.65 87.12 L 41.73 86.79 L 41.93 86.69 L 41.57 86.32 L 41.52 85.99 L 41.92 85.41 L 41.48 85.15 L 41.45 84.88 L 41.54 84.69 L 41.80 84.78 L 41.82 84.34 L 41.26 83.15 Z"/>
    <path d="M 36.02 31.61 L 35.65 32.55 L 36.53 32.11 L 37.40 32.25 L 38.62 33.09 L 39.15 33.24 L 40.37 34.58 L 40.32 34.97 L 39.50 36.01 L 39.39 36.60 L 39.37 37.07 L 39.72 37.34 L 39.75 37.96 L 40.40 39.20 L 40.41 39.42 L 40.00 39.74 L 39.80 40.23 L 39.82 40.95 L 40.47 41.44 L 40.51 42.04 L 41.30 43.02 L 41.40 44.34 L 41.88 44.60 L 41.87 44.98 L 42.56 45.01 L 42.69 45.30 L 42.46 45.50 L 42.12 45.49 L 42.15 45.74 L 41.59 46.36 L 41.23 47.58 L 40.81 48.30 L 40.72 49.39 L 40.91 49.14 L 41.21 49.22 L 41.54 49.80 L 41.85 49.78 L 42.37 50.11 L 42.63 51.28 L 44.04 51.11 L 44.44 51.30 L 45.26 51.32 L 46.09 51.78 L 46.64 51.58 L 47.09 51.64 L 47.88 52.42 L 48.50 52.63 L 48.87 52.51 L 49.07 52.98 L 48.93 53.53 L 49.02 53.92 L 49.28 54.05 L 49.09 54.54 L 48.81 54.62 L 48.68 54.89 L 49.12 54.96 L 49.85 54.73 L 49.91 54.21 L 50.16 54.06 L 50.00 53.61 L 50.41 53.15 L 50.38 52.67 L 50.56 52.70 L 50.62 52.49 L 50.93 52.41 L 50.83 52.23 L 51.04 52.22 L 51.50 51.63 L 52.19 51.90 L 52.75 51.50 L 53.12 51.55 L 53.44 51.39 L 53.59 51.52 L 53.50 51.75 L 55.04 52.01 L 54.49 49.66 L 54.61 48.73 L 54.26 48.20 L 53.44 44.71 L 53.28 44.51 L 52.36 43.82 L 52.23 44.11 L 51.92 44.28 L 51.27 44.35 L 51.50 44.95 L 51.22 45.59 L 50.19 45.68 L 50.35 45.75 L 50.21 45.85 L 50.14 45.73 L 50.18 45.85 L 50.01 45.92 L 50.16 45.68 L 49.56 45.72 L 48.99 45.47 L 48.71 44.98 L 48.62 44.39 L 48.24 44.20 L 47.40 44.34 L 47.08 44.90 L 46.59 44.48 L 46.56 44.30 L 46.93 44.21 L 47.55 43.22 L 48.22 43.80 L 48.29 43.48 L 48.50 43.54 L 48.47 44.17 L 48.66 44.30 L 49.27 44.28 L 49.04 43.74 L 49.30 43.63 L 48.92 43.68 L 49.05 43.50 L 48.85 43.39 L 48.97 43.30 L 48.64 43.24 L 49.07 42.93 L 48.68 42.97 L 48.64 42.69 L 48.90 42.68 L 48.86 42.49 L 48.66 42.44 L 48.90 42.21 L 48.97 42.54 L 49.48 42.06 L 49.11 42.62 L 49.71 42.38 L 49.91 42.74 L 49.53 43.24 L 49.84 43.15 L 49.68 43.39 L 49.84 43.49 L 50.26 43.12 L 50.27 42.78 L 50.04 42.45 L 50.25 42.11 L 50.09 42.30 L 49.86 42.17 L 49.47 41.26 L 49.47 40.99 L 49.68 40.74 L 49.64 40.02 L 49.04 39.36 L 48.18 37.63 L 47.73 37.30 L 47.36 36.63 L 47.20 36.64 L 46.53 35.95 L 45.92 35.05 L 45.51 33.88 L 45.28 33.83 L 45.34 33.66 L 44.97 33.97 L 44.37 33.52 L 43.85 32.94 L 43.18 31.60 L 42.86 31.46 L 41.95 30.19 L 41.75 30.60 L 41.93 31.12 L 41.19 31.47 L 41.40 31.58 L 41.21 31.87 L 40.93 31.60 L 40.74 31.86 L 40.67 31.60 L 40.41 31.61 L 40.34 31.19 L 40.16 31.28 L 40.29 31.03 L 40.18 30.69 L 40.78 30.81 L 40.91 30.60 L 40.48 30.38 L 40.80 29.98 L 40.51 30.20 L 40.05 30.19 L 40.00 30.37 L 39.69 30.30 L 39.62 30.55 L 39.23 30.68 L 39.10 30.94 L 38.03 30.92 L 37.86 31.06 L 36.31 31.32 L 36.19 31.49 Z"/>
  </g>
  <g fill="none" stroke="#e8f0ff" stroke-width="0.9" stroke-linecap="round" stroke-linejoin="round">
    <path d="M 4.90 14.06 L 4.22 14.00 L 3.58 13.33 L 3.26 13.27 L 3.00 13.53 L 3.12 14.78 L 4.59 15.65 L 5.05 15.69 L 5.39 15.16 L 5.20 14.22 L 4.97 14.07 Z"/>
    <path d="M 6.90 9.38 L 6.35 10.18 L 6.52 10.46 L 7.03 10.02 L 6.94 9.46 Z"/>
    <path d="M 7.80 9.30 L 7.83 9.17 L 7.76 8.94 L 7.85 8.68 L 7.83 8.54 L 7.70 8.76 L 7.63 9.15 L 7.69 9.39 L 7.76 9.44 L 7.80 9.43 Z"/>
    <path d="M 9.05 7.65 L 9.23 8.22 L 8.90 8.62 L 9.61 8.90 L 10.13 8.66 L 10.03 8.19 L 10.29 7.41 L 10.14 7.12 L 10.43 7.03 L 9.35 7.15 L 9.05 7.48 Z"/>
    <path d="M 31.75 16.13 L 24.05 10.06 L 22.89 8.68 L 20.65 5.20 L 19.62 4.99 L 18.35 5.31 L 17.48 5.29 L 16.33 5.78 L 14.13 5.36 L 14.42 5.52 L 12.47 5.89 L 11.80 6.20 L 11.43 6.61 L 10.80 6.75 L 10.59 6.95 L 10.62 7.41 L 11.13 7.87 L 11.34 8.35 L 11.28 8.60 L 11.73 9.32 L 11.99 9.35 L 12.27 8.97 L 12.55 8.05 L 12.35 9.06 L 12.76 9.46 L 13.01 9.25 L 13.28 9.36 L 13.27 9.84 L 13.73 10.37 L 14.52 10.61 L 14.72 10.49 L 16.18 11.41 L 17.32 11.72 L 16.84 11.56 L 16.24 10.93 L 15.78 10.77 L 15.63 10.21 L 17.40 11.19 L 19.26 12.54 L 19.51 12.38 L 18.80 12.10 L 18.46 10.90 L 18.15 10.90 L 17.98 10.63 L 18.12 10.42 L 18.50 10.34 L 20.89 11.54 L 22.09 9.27 L 23.18 10.51 L 25.21 11.64 L 26.58 12.72 L 26.84 13.29 L 26.81 13.75 L 27.34 14.30 L 31.51 16.22 Z"/>
    <path d="M 8.58 11.63 L 9.02 11.85 L 8.66 11.80 L 8.90 12.09 L 8.50 12.00 L 8.44 12.22 L 8.01 11.92 L 8.02 11.20 L 7.95 11.36 L 7.72 11.23 L 7.56 11.93 L 7.73 12.01 L 7.67 12.28 L 7.50 12.27 L 7.51 12.64 L 8.69 12.93 L 9.23 12.83 L 9.26 11.77 L 8.71 11.39 L 8.62 11.64 Z"/>
    <path d="M 6.66 12.09 L 6.61 12.01 L 6.68 11.39 L 6.67 11.35 L 6.54 11.32 L 6.31 11.57 L 6.28 11.77 L 6.32 11.95 L 6.33 12.28 L 6.38 12.33 L 6.64 12.43 L 6.70 12.23 Z"/>
    <path d="M 9.13 11.11 L 9.13 11.02 L 9.06 10.94 L 8.96 10.97 L 9.02 11.28 L 9.18 11.46 L 9.22 11.47 L 9.25 11.42 L 9.17 11.44 L 9.22 11.43 L 9.28 11.31 L 9.22 11.28 L 9.25 11.19 Z"/>
    <path d="M 12.82 11.31 L 12.86 10.91 L 12.77 11.02 L 12.25 10.95 L 11.06 10.16 L 11.32 10.03 L 11.20 9.93 L 11.41 9.70 L 10.93 9.59 L 11.06 9.70 L 10.57 9.84 L 10.81 10.44 L 10.27 9.78 L 10.36 9.48 L 9.98 9.03 L 9.56 9.21 L 9.26 8.90 L 8.64 8.91 L 8.88 9.27 L 8.71 9.44 L 8.80 9.71 L 9.11 10.15 L 9.43 10.23 L 9.57 9.91 L 9.72 10.00 L 9.32 10.38 L 9.45 10.81 L 10.39 11.49 L 10.62 11.45 L 10.91 11.00 L 11.43 11.06 L 12.47 11.60 L 12.79 11.33 L 12.91 11.59 L 12.69 11.81 L 12.30 11.74 L 12.98 12.05 L 13.36 11.86 L 13.59 11.12 L 13.18 10.47 L 13.08 10.75 L 12.91 10.70 L 12.98 11.23 L 12.78 11.31 Z"/>
    <path d="M 13.64 15.75 L 13.62 15.91 L 13.69 15.95 L 13.78 15.91 L 13.76 15.82 L 13.86 15.67 L 13.87 15.49 L 13.76 15.39 L 13.50 15.39 L 13.46 15.52 Z"/>
    <path d="M 12.87 20.66 L 12.50 20.98 L 12.50 21.27 L 12.68 21.45 L 13.08 21.33 L 13.40 21.70 L 13.49 21.25 L 13.10 21.20 L 13.19 21.07 L 12.93 20.66 Z"/>
    <path d="M 14.98 19.94 L 15.08 19.98 L 15.14 19.93 L 15.05 19.88 L 15.10 19.65 L 15.04 19.61 L 15.02 19.43 L 14.93 19.51 L 14.88 19.73 L 14.91 19.90 Z"/>
    <path d="M 20.89 11.54 L 23.47 13.13 L 24.73 14.54 L 24.90 14.36 L 25.33 14.35 L 25.27 14.55 L 24.91 14.48 L 25.10 14.82 L 24.88 15.41 L 23.77 15.90 L 23.41 15.72 L 23.37 16.10 L 23.19 16.26 L 22.58 16.06 L 22.40 16.18 L 22.62 16.48 L 22.40 16.41 L 22.44 16.65 L 22.29 16.25 L 21.99 16.16 L 22.00 16.37 L 21.82 16.40 L 21.88 16.23 L 21.25 16.14 L 20.32 15.69 L 20.61 15.62 L 20.96 15.79 L 21.20 15.62 L 21.57 15.67 L 20.90 15.28 L 20.67 15.00 L 20.70 14.75 L 21.06 15.01 L 21.69 15.08 L 19.97 13.91 L 19.87 14.12 L 19.19 13.80 L 19.14 13.59 L 18.39 13.64 L 17.57 13.18 L 17.08 12.63 L 16.70 12.71 L 16.39 12.32 L 15.28 11.97 L 15.16 11.63 L 14.88 11.99 L 16.00 12.60 L 17.69 13.89 L 18.85 15.36 L 18.68 15.78 L 18.37 15.92 L 17.64 16.82 L 14.93 18.20 L 15.22 19.94 L 15.98 20.10 L 16.98 20.93 L 16.60 21.58 L 16.92 22.23 L 16.78 22.55 L 16.89 23.45 L 16.76 23.55 L 17.75 23.49 L 19.02 22.72 L 19.80 22.81 L 19.66 21.55 L 20.47 20.93 L 21.16 20.77 L 21.61 20.92 L 22.86 20.61 L 25.04 20.83 L 25.38 20.62 L 25.42 19.69 L 28.71 19.52 L 29.10 17.74 L 29.88 18.59 L 30.68 19.00 L 30.71 17.65 L 31.40 17.13 L 31.53 16.61 L 31.33 16.45 L 31.57 16.48 L 31.51 16.22 L 27.34 14.30 L 26.81 13.75 L 26.84 13.29 L 26.58 12.72 L 25.21 11.64 L 23.18 10.51 L 22.09 9.27 L 21.15 11.12 Z"/>
    <path d="M 16.76 23.55 L 16.44 24.01 L 16.50 24.36 L 16.30 25.01 L 15.60 25.98 L 15.62 26.74 L 15.39 27.13 L 15.47 27.43 L 14.48 29.18 L 14.57 29.26 L 13.81 29.37 L 13.77 29.54 L 13.06 29.87 L 12.96 30.45 L 12.39 30.65 L 11.78 31.31 L 10.99 31.36 L 10.71 31.56 L 11.33 32.22 L 11.18 32.37 L 11.43 32.67 L 11.20 32.64 L 11.25 33.49 L 10.82 35.30 L 12.15 37.92 L 11.86 38.28 L 11.93 39.23 L 11.63 40.07 L 11.79 40.64 L 11.59 41.12 L 10.98 41.77 L 10.96 42.56 L 11.49 42.90 L 11.83 42.80 L 12.30 43.07 L 12.67 42.99 L 13.10 43.32 L 13.36 43.24 L 13.58 43.50 L 14.62 43.90 L 14.83 43.91 L 14.98 40.50 L 14.65 39.42 L 15.71 40.01 L 16.71 40.13 L 20.31 39.21 L 19.09 37.64 L 18.40 37.19 L 18.61 36.42 L 19.20 36.71 L 20.14 34.84 L 22.15 35.07 L 22.74 34.76 L 24.34 34.49 L 25.26 33.98 L 24.60 31.63 L 23.70 31.03 L 23.07 30.94 L 18.52 31.22 L 18.58 30.59 L 18.97 30.35 L 18.56 29.84 L 19.11 28.39 L 19.86 28.12 L 19.74 26.86 L 20.03 26.39 L 19.77 25.50 L 19.13 24.53 L 19.02 22.72 L 17.75 23.49 L 16.83 23.56 Z"/>
    <path d="M 10.78 31.47 L 10.92 31.08 L 10.76 31.02 L 10.70 31.06 L 10.46 31.45 L 10.56 31.55 Z"/>
    <path d="M 10.44 31.32 L 10.65 31.06 L 10.61 30.97 L 10.46 30.88 L 10.25 30.92 L 10.12 31.06 L 10.14 31.16 L 10.17 31.14 Z"/>
    <path d="M 10.10 31.06 L 9.97 30.78 L 10.21 30.86 L 10.27 30.69 L 10.75 30.47 L 11.16 30.47 L 11.16 30.26 L 9.86 29.36 L 8.99 27.93 L 9.50 28.64 L 11.19 29.46 L 9.25 27.60 L 7.36 26.89 L 5.93 26.59 L 4.74 26.64 L 4.15 27.03 L 4.39 27.29 L 4.09 27.34 L 4.04 27.49 L 5.32 27.56 L 7.24 28.37 L 8.65 29.38 L 9.67 30.42 Z"/>
    <path d="M 31.51 16.22 L 31.57 16.48 L 31.33 16.45 L 31.53 16.61 L 31.40 17.13 L 30.71 17.65 L 30.68 19.00 L 29.88 18.59 L 29.10 17.74 L 28.71 19.52 L 25.42 19.69 L 25.38 20.62 L 25.04 20.83 L 22.86 20.61 L 21.61 20.92 L 21.16 20.77 L 20.26 21.00 L 19.66 21.55 L 19.80 22.81 L 19.02 22.72 L 19.13 24.53 L 19.77 25.50 L 20.03 26.39 L 19.74 26.86 L 19.86 28.12 L 19.11 28.39 L 18.56 29.84 L 18.97 30.35 L 18.58 30.59 L 18.52 31.22 L 23.41 30.96 L 24.92 30.01 L 26.19 28.85 L 25.96 27.05 L 25.31 27.06 L 25.31 26.33 L 27.89 26.26 L 28.45 26.97 L 28.53 27.48 L 29.04 27.49 L 29.92 26.56 L 30.66 26.46 L 30.57 26.01 L 32.49 26.28 L 32.66 27.43 L 33.13 27.53 L 33.55 27.28 L 33.82 27.54 L 33.40 28.81 L 33.64 28.83 L 34.60 28.22 L 36.65 29.44 L 36.02 31.61 L 36.31 31.32 L 37.86 31.06 L 38.03 30.92 L 39.10 30.94 L 39.23 30.68 L 39.62 30.55 L 39.69 30.30 L 40.00 30.37 L 40.05 30.19 L 40.60 30.15 L 40.80 29.98 L 40.56 29.98 L 40.72 29.60 L 40.63 29.44 L 40.51 29.39 L 40.24 29.79 L 39.31 28.99 L 39.35 28.81 L 39.74 28.64 L 39.69 28.46 L 39.90 28.27 L 40.79 29.10 L 41.50 30.07 L 41.90 30.06 L 39.37 25.78 L 38.80 24.51 L 38.36 22.90 L 37.36 21.06 L 35.41 19.46 L 33.21 17.31 L 33.22 17.56 L 34.76 19.21 L 34.72 19.37 L 34.54 19.25 L 34.36 18.80 L 33.04 17.76 L 33.19 17.28 L 31.75 16.13 Z"/>
    <path d="M 20.31 39.21 L 20.36 40.74 L 20.74 41.11 L 21.03 41.06 L 21.47 41.27 L 21.88 42.76 L 23.34 43.19 L 23.76 42.40 L 24.29 42.33 L 24.59 42.07 L 24.62 40.95 L 25.17 40.58 L 25.50 39.83 L 25.84 39.76 L 25.90 39.40 L 26.50 38.95 L 26.71 38.85 L 28.35 39.86 L 28.73 39.85 L 29.04 39.44 L 30.22 38.62 L 30.33 38.14 L 30.80 37.98 L 31.15 37.32 L 31.66 37.07 L 32.12 36.26 L 32.69 35.82 L 31.91 34.57 L 30.89 34.25 L 30.98 33.60 L 33.11 33.55 L 34.43 32.75 L 35.65 32.55 L 36.65 29.44 L 34.60 28.22 L 33.64 28.83 L 33.40 28.81 L 33.82 27.54 L 33.55 27.28 L 33.13 27.53 L 32.66 27.43 L 32.49 26.28 L 32.21 26.18 L 32.12 26.31 L 31.78 26.07 L 30.57 26.01 L 30.66 26.46 L 29.92 26.56 L 29.04 27.49 L 28.53 27.48 L 28.45 26.97 L 27.89 26.26 L 25.31 26.33 L 25.31 27.06 L 25.96 27.05 L 26.19 28.85 L 24.92 30.01 L 23.41 30.96 L 24.23 31.29 L 24.60 31.63 L 25.26 33.98 L 24.34 34.49 L 22.74 34.76 L 22.15 35.07 L 20.14 34.84 L 19.20 36.71 L 18.61 36.42 L 18.37 37.09 L 19.09 37.64 L 20.24 39.07 Z"/>
    <path d="M 12.97 105.57 L 13.46 106.78 L 13.64 107.72 L 14.18 108.81 L 14.18 109.32 L 14.46 109.94 L 14.32 110.63 L 14.87 111.62 L 15.20 112.97 L 15.96 113.70 L 16.26 114.22 L 16.30 114.73 L 16.99 115.32 L 17.02 115.60 L 19.01 117.35 L 19.53 117.55 L 19.78 117.92 L 19.93 117.55 L 20.19 117.58 L 20.13 117.72 L 20.41 117.66 L 20.52 117.78 L 20.30 118.10 L 20.54 118.46 L 20.73 118.33 L 21.18 118.66 L 22.67 118.87 L 24.32 119.59 L 24.74 119.59 L 24.65 119.10 L 24.93 118.36 L 25.88 118.06 L 25.55 117.66 L 24.94 117.61 L 24.87 117.00 L 25.02 116.91 L 25.16 117.09 L 25.33 117.05 L 25.51 116.57 L 26.27 116.06 L 26.34 115.84 L 25.80 115.34 L 25.37 115.24 L 25.20 114.81 L 24.78 114.53 L 24.73 113.72 L 25.07 113.53 L 24.83 113.10 L 25.28 112.98 L 25.12 112.54 L 24.70 112.07 L 25.98 112.27 L 26.37 111.92 L 26.24 111.61 L 26.41 111.49 L 26.23 111.26 L 26.35 111.07 L 25.84 110.54 L 25.58 109.94 L 25.00 109.63 L 24.52 108.99 L 25.32 108.73 L 26.55 109.69 L 26.78 110.06 L 27.41 110.31 L 27.56 110.14 L 27.73 110.19 L 28.02 109.74 L 27.72 109.10 L 27.09 108.58 L 26.98 108.20 L 27.50 107.80 L 28.01 107.73 L 27.97 107.43 L 27.32 107.41 L 27.12 107.18 L 26.39 106.92 L 26.12 107.08 L 25.75 106.99 L 24.63 106.01 L 24.27 105.97 L 22.62 106.86 L 22.20 106.84 L 21.94 107.01 L 21.94 107.64 L 22.25 108.68 L 22.13 108.99 L 21.51 108.27 L 20.48 107.46 L 19.78 107.36 L 19.62 107.61 L 19.46 107.60 L 19.48 107.96 L 18.95 108.11 L 17.92 107.74 L 17.21 107.78 L 16.71 107.18 L 15.93 106.71 L 15.40 106.82 L 15.16 106.52 L 14.23 106.18 L 14.03 105.83 L 13.67 105.66 L 13.31 105.97 L 13.00 105.53 Z"/>
    <path d="M 33.19 109.55 L 32.79 109.65 L 33.00 110.11 L 32.67 110.59 L 32.92 110.91 L 32.25 111.13 L 31.36 112.70 L 31.45 113.03 L 31.96 113.24 L 32.21 113.58 L 32.89 113.47 L 32.96 113.69 L 32.49 114.44 L 32.54 114.66 L 32.90 114.81 L 33.00 115.08 L 33.69 114.95 L 33.96 115.19 L 33.49 115.59 L 33.54 115.96 L 33.89 116.37 L 33.84 116.74 L 32.94 117.06 L 32.74 117.34 L 33.00 117.46 L 33.09 117.87 L 33.83 117.83 L 34.03 118.07 L 33.69 118.36 L 33.73 118.89 L 34.16 118.82 L 35.20 119.44 L 35.15 119.16 L 35.56 118.94 L 35.41 118.89 L 35.51 118.67 L 36.48 118.43 L 36.74 118.07 L 37.08 117.94 L 37.01 117.72 L 37.25 117.51 L 38.43 117.27 L 38.83 117.37 L 39.15 116.89 L 41.08 116.40 L 41.28 116.13 L 42.28 116.04 L 42.99 115.62 L 44.65 115.34 L 45.56 115.27 L 45.75 115.39 L 45.83 115.23 L 46.05 115.27 L 45.85 115.23 L 45.97 115.11 L 45.84 114.83 L 46.10 114.84 L 46.11 115.16 L 46.74 115.06 L 46.82 114.70 L 47.96 114.30 L 48.52 113.92 L 49.66 113.72 L 49.95 113.30 L 52.56 112.73 L 53.03 112.27 L 53.04 112.11 L 52.93 112.17 L 53.08 111.99 L 54.86 111.19 L 55.94 109.90 L 57.22 109.41 L 57.28 109.08 L 57.62 108.87 L 57.88 108.25 L 58.65 107.88 L 59.46 107.74 L 59.76 107.56 L 59.66 107.49 L 59.77 107.30 L 60.73 106.78 L 61.30 106.27 L 61.21 105.93 L 62.20 105.41 L 62.55 104.86 L 63.49 104.20 L 63.93 103.49 L 63.02 103.22 L 62.58 102.61 L 62.22 102.47 L 61.86 102.55 L 61.36 101.70 L 60.98 101.43 L 60.73 101.99 L 60.40 102.00 L 60.18 102.30 L 59.71 102.19 L 59.16 102.72 L 58.75 102.74 L 58.48 103.22 L 57.24 103.93 L 57.16 104.60 L 57.36 104.86 L 57.07 105.32 L 57.18 106.19 L 56.95 106.53 L 55.99 106.18 L 55.63 106.23 L 55.40 106.49 L 54.83 106.58 L 54.61 106.33 L 54.34 106.81 L 54.02 106.82 L 53.84 107.05 L 51.21 107.68 L 51.06 108.10 L 50.47 108.52 L 49.64 108.40 L 49.51 108.26 L 49.61 108.02 L 49.21 107.74 L 48.42 106.60 L 48.00 106.68 L 47.88 106.98 L 47.61 106.99 L 47.42 106.78 L 47.25 106.84 L 47.02 106.14 L 45.96 106.22 L 45.60 106.05 L 45.06 106.06 L 44.79 106.43 L 44.42 106.12 L 44.43 106.56 L 44.06 107.02 L 43.35 106.88 L 43.21 107.13 L 43.18 107.68 L 43.41 107.69 L 43.63 107.98 L 43.50 108.40 L 42.01 108.98 L 41.66 109.32 L 40.63 109.83 L 40.92 110.08 L 41.01 110.53 L 41.22 110.60 L 41.24 110.93 L 41.57 111.54 L 41.18 111.86 L 40.92 111.50 L 40.31 111.56 L 39.78 111.24 L 39.47 111.32 L 39.09 110.71 L 38.75 110.56 L 37.77 110.75 L 36.98 110.70 L 34.19 109.54 L 33.31 109.57 Z"/>
    <path d="M 24.65 119.64 L 25.74 119.96 L 25.96 119.49 L 26.31 119.43 L 26.79 119.70 L 26.72 120.16 L 26.48 120.20 L 26.78 120.36 L 26.89 120.25 L 27.39 120.47 L 27.97 120.39 L 28.73 120.53 L 29.44 120.30 L 29.85 120.35 L 30.45 120.55 L 30.64 120.99 L 30.86 121.01 L 30.96 120.81 L 31.71 120.61 L 31.62 120.49 L 31.78 120.24 L 32.18 120.16 L 32.30 120.27 L 32.58 119.96 L 34.00 119.70 L 34.06 119.82 L 34.73 119.81 L 34.59 119.67 L 34.73 119.16 L 34.16 118.82 L 33.73 118.89 L 33.69 118.36 L 34.03 118.07 L 33.89 117.87 L 33.09 117.87 L 33.00 117.46 L 32.74 117.34 L 32.94 117.06 L 33.84 116.74 L 33.89 116.37 L 33.54 115.96 L 33.49 115.59 L 33.96 115.19 L 33.90 115.04 L 33.00 115.08 L 32.90 114.81 L 32.54 114.66 L 32.49 114.44 L 32.96 113.69 L 32.89 113.47 L 32.21 113.58 L 31.96 113.24 L 31.45 113.03 L 31.36 112.70 L 32.25 111.13 L 32.92 110.91 L 32.67 110.59 L 33.00 110.11 L 32.79 109.65 L 33.19 109.55 L 33.18 109.17 L 33.34 109.08 L 32.81 108.63 L 32.99 108.55 L 32.93 108.14 L 31.44 108.37 L 31.31 107.96 L 31.63 107.62 L 31.67 106.88 L 31.02 106.84 L 30.48 107.04 L 30.09 106.94 L 29.78 107.08 L 29.62 106.88 L 29.47 107.09 L 29.15 107.12 L 29.15 107.53 L 27.80 107.84 L 27.63 107.75 L 26.98 108.20 L 27.09 108.58 L 27.72 109.10 L 28.02 109.74 L 27.73 110.19 L 27.56 110.14 L 27.41 110.31 L 26.78 110.06 L 26.55 109.69 L 25.32 108.73 L 24.56 108.91 L 24.78 109.43 L 25.58 109.94 L 25.84 110.54 L 26.35 111.07 L 26.23 111.26 L 26.41 111.49 L 26.24 111.61 L 26.37 111.92 L 25.98 112.27 L 24.70 112.07 L 25.12 112.54 L 25.28 112.98 L 24.83 113.10 L 25.07 113.53 L 24.73 113.72 L 24.78 114.53 L 25.20 114.81 L 25.37 115.24 L 25.80 115.34 L 26.34 115.84 L 26.27 116.06 L 25.51 116.57 L 25.33 117.05 L 25.16 117.09 L 25.02 116.91 L 24.87 117.00 L 24.94 117.61 L 25.55 117.66 L 25.88 118.06 L 24.93 118.36 L 24.64 119.61 Z"/>
    <path d="M 63.93 103.49 L 64.89 101.61 L 65.56 100.95 L 65.50 100.59 L 66.00 99.45 L 65.80 99.08 L 65.86 98.72 L 66.67 97.63 L 66.74 96.88 L 67.43 95.98 L 67.23 95.26 L 67.34 94.51 L 67.85 93.82 L 67.66 93.69 L 67.62 93.38 L 68.03 92.79 L 68.00 91.64 L 68.67 89.81 L 68.61 89.43 L 69.00 88.33 L 68.70 87.54 L 68.35 85.39 L 68.58 81.36 L 68.73 80.84 L 68.61 79.38 L 67.81 76.70 L 67.36 76.05 L 67.09 74.76 L 66.47 75.05 L 65.96 74.72 L 65.50 75.37 L 64.44 75.50 L 63.42 76.52 L 62.93 76.73 L 62.82 77.11 L 62.62 77.18 L 62.43 75.33 L 62.53 75.00 L 62.16 74.11 L 62.21 73.44 L 61.30 73.94 L 58.31 73.92 L 57.61 73.73 L 57.75 73.54 L 56.35 72.91 L 55.80 72.11 L 56.22 70.64 L 56.16 69.97 L 54.32 69.54 L 53.86 69.23 L 52.70 67.68 L 52.62 67.27 L 50.76 67.19 L 50.50 67.34 L 50.11 67.10 L 49.89 67.60 L 50.05 67.86 L 50.05 68.85 L 49.56 69.08 L 49.50 69.63 L 49.30 69.83 L 48.82 69.41 L 47.46 68.86 L 47.26 68.96 L 46.45 68.55 L 45.76 67.51 L 45.00 67.34 L 44.42 67.70 L 42.64 67.61 L 42.74 68.29 L 42.59 68.59 L 42.80 69.40 L 42.42 69.94 L 42.31 70.48 L 42.53 70.89 L 43.36 71.34 L 43.42 72.61 L 43.84 73.06 L 44.20 74.02 L 44.61 74.00 L 44.88 73.73 L 45.22 73.82 L 46.31 72.85 L 47.81 72.11 L 48.53 71.98 L 49.05 72.54 L 49.09 73.70 L 48.85 74.15 L 48.86 75.02 L 48.37 75.83 L 48.55 76.01 L 48.92 77.25 L 48.70 77.80 L 49.00 78.09 L 49.48 79.13 L 49.99 78.87 L 50.25 79.06 L 50.24 79.33 L 50.78 79.88 L 51.01 80.36 L 50.88 80.63 L 51.23 81.24 L 51.18 81.42 L 51.45 81.63 L 51.42 81.87 L 52.00 81.37 L 52.53 81.20 L 52.41 80.76 L 52.59 80.13 L 52.38 79.72 L 52.46 78.99 L 53.17 79.05 L 53.84 78.82 L 53.78 78.40 L 54.06 78.37 L 54.41 78.01 L 54.03 77.21 L 54.07 76.83 L 54.48 76.91 L 54.98 76.65 L 55.03 76.16 L 55.46 76.08 L 56.48 75.41 L 57.15 75.52 L 56.65 76.24 L 57.10 76.50 L 56.96 77.35 L 57.50 78.98 L 57.15 79.37 L 58.33 80.39 L 58.59 81.48 L 58.46 81.80 L 58.78 81.88 L 59.35 82.55 L 58.44 83.14 L 58.11 83.60 L 57.78 84.58 L 58.17 84.95 L 58.11 85.50 L 58.40 86.10 L 60.62 86.93 L 61.16 86.96 L 61.31 87.53 L 60.95 88.23 L 61.15 88.88 L 61.36 89.04 L 61.26 89.61 L 61.84 90.18 L 61.59 91.57 L 60.98 101.43 L 61.36 101.70 L 61.86 102.55 L 62.22 102.47 L 62.58 102.61 L 63.02 103.22 L 63.68 103.37 Z"/>
    <path d="M 14.30 43.75 L 14.61 44.75 L 14.28 45.58 L 13.92 46.18 L 13.05 46.83 L 13.06 47.11 L 12.66 47.59 L 12.04 47.69 L 11.93 48.26 L 12.59 49.38 L 12.80 51.15 L 13.21 51.84 L 13.34 52.60 L 14.15 52.64 L 14.46 52.32 L 15.17 52.86 L 15.69 52.75 L 15.90 53.13 L 16.20 53.16 L 16.36 53.52 L 16.98 54.00 L 17.81 54.17 L 18.24 54.51 L 18.78 54.57 L 18.91 54.88 L 19.47 54.82 L 19.71 55.11 L 20.78 55.42 L 21.23 55.95 L 22.47 55.90 L 24.30 57.66 L 24.96 57.95 L 25.33 57.74 L 25.59 57.93 L 25.76 58.08 L 25.64 59.15 L 25.96 60.47 L 25.74 60.75 L 26.18 60.91 L 26.59 60.70 L 27.00 60.99 L 27.14 62.19 L 27.39 62.45 L 27.55 63.00 L 27.23 63.81 L 27.53 64.08 L 27.67 64.61 L 28.14 64.81 L 28.15 64.52 L 28.87 64.48 L 30.08 63.84 L 30.40 63.27 L 30.82 63.30 L 30.91 63.57 L 31.11 63.64 L 31.79 63.26 L 31.79 62.85 L 32.27 62.67 L 32.07 62.33 L 32.71 61.88 L 32.68 60.95 L 32.85 60.55 L 33.14 60.45 L 33.55 60.65 L 34.25 59.61 L 35.74 59.00 L 35.55 58.71 L 35.84 58.05 L 36.36 57.42 L 35.81 57.34 L 35.83 54.91 L 36.61 53.32 L 36.68 52.52 L 37.17 51.12 L 39.97 51.05 L 40.34 49.70 L 40.72 49.39 L 40.81 48.30 L 41.23 47.58 L 41.59 46.36 L 42.15 45.74 L 42.12 45.49 L 42.46 45.50 L 42.69 45.30 L 42.56 45.01 L 41.87 44.98 L 41.88 44.60 L 41.40 44.34 L 41.30 43.02 L 40.51 42.04 L 40.47 41.44 L 39.82 40.95 L 39.80 40.23 L 40.00 39.74 L 40.41 39.42 L 40.40 39.20 L 39.75 37.96 L 39.72 37.34 L 39.37 37.07 L 39.39 36.60 L 39.50 36.01 L 40.32 34.97 L 40.37 34.58 L 39.15 33.24 L 38.62 33.09 L 37.40 32.25 L 36.53 32.11 L 35.65 32.55 L 34.43 32.75 L 33.11 33.55 L 30.98 33.60 L 30.89 34.25 L 31.91 34.57 L 32.21 35.21 L 32.63 35.57 L 32.63 35.95 L 32.12 36.26 L 31.66 37.07 L 31.15 37.32 L 30.80 37.98 L 30.33 38.14 L 30.22 38.62 L 29.04 39.44 L 28.73 39.85 L 28.35 39.86 L 26.71 38.85 L 25.90 39.40 L 25.84 39.76 L 25.50 39.83 L 25.17 40.58 L 24.62 40.95 L 24.59 42.07 L 24.29 42.33 L 23.76 42.40 L 23.34 43.19 L 21.88 42.76 L 21.47 41.27 L 21.03 41.06 L 20.74 41.11 L 20.36 40.74 L 20.31 39.21 L 16.71 40.13 L 15.71 40.01 L 14.65 39.42 L 14.98 40.50 L 14.83 43.91 L 14.33 43.83 Z"/>
    <path d="M 42.31 70.48 L 42.11 73.17 L 42.23 76.34 L 42.06 76.75 L 42.45 77.33 L 42.26 78.24 L 43.45 82.08 L 43.20 82.58 L 42.47 82.69 L 42.16 83.18 L 41.26 83.15 L 41.82 84.34 L 41.80 84.78 L 41.54 84.69 L 41.45 84.88 L 41.48 85.15 L 41.92 85.41 L 41.52 85.99 L 41.57 86.32 L 41.93 86.69 L 41.73 86.79 L 41.65 87.12 L 41.22 87.38 L 41.13 87.72 L 40.87 87.86 L 40.58 89.26 L 39.95 89.66 L 39.26 89.77 L 38.88 89.64 L 38.09 90.30 L 37.83 91.19 L 37.40 91.44 L 36.50 91.31 L 36.32 91.57 L 37.33 91.90 L 37.29 92.13 L 37.47 92.20 L 37.39 92.55 L 37.55 92.49 L 37.75 92.65 L 37.64 93.08 L 38.15 93.58 L 37.97 93.92 L 37.45 94.07 L 37.55 94.35 L 38.14 94.57 L 38.05 94.84 L 37.78 95.12 L 37.29 95.16 L 37.41 95.35 L 37.38 96.23 L 37.84 96.05 L 38.06 96.53 L 38.65 96.50 L 38.75 96.65 L 38.53 96.99 L 38.66 97.30 L 38.30 97.32 L 37.39 97.77 L 37.40 97.94 L 37.79 98.19 L 37.92 98.78 L 38.45 98.87 L 38.74 99.14 L 38.92 98.90 L 39.43 98.95 L 39.73 98.60 L 40.23 98.52 L 40.45 98.03 L 40.83 98.25 L 41.19 98.16 L 41.17 98.51 L 41.54 98.71 L 41.58 99.21 L 42.04 99.23 L 42.26 99.51 L 42.34 100.34 L 42.69 100.23 L 42.94 100.40 L 42.83 101.58 L 43.64 102.55 L 43.70 101.63 L 43.96 101.33 L 44.17 101.12 L 44.81 101.48 L 44.81 100.86 L 45.22 100.51 L 45.52 100.56 L 44.88 99.86 L 44.77 99.31 L 44.88 97.88 L 45.27 97.66 L 45.48 97.05 L 45.07 96.77 L 44.62 96.86 L 44.49 96.72 L 44.88 96.05 L 44.77 95.43 L 44.91 94.51 L 45.73 94.65 L 45.89 94.55 L 45.82 94.09 L 46.47 94.05 L 47.03 93.77 L 46.46 93.08 L 46.22 93.04 L 46.30 92.77 L 47.68 92.23 L 48.08 91.92 L 48.38 91.10 L 48.50 91.32 L 49.00 91.32 L 49.12 91.17 L 48.94 91.00 L 49.09 90.78 L 49.67 90.60 L 49.49 90.17 L 49.90 90.01 L 49.83 89.33 L 50.21 88.73 L 50.12 87.42 L 49.75 86.49 L 49.45 86.60 L 49.27 86.13 L 48.63 86.19 L 48.52 86.45 L 47.96 86.50 L 47.67 85.61 L 47.16 84.93 L 46.73 84.69 L 46.63 84.12 L 47.12 83.41 L 47.47 83.22 L 47.83 83.85 L 48.14 83.98 L 48.45 83.88 L 48.55 83.33 L 49.09 83.02 L 49.95 81.90 L 49.82 81.06 L 50.98 80.79 L 50.88 80.63 L 51.01 80.36 L 50.78 79.88 L 50.24 79.33 L 50.25 79.06 L 49.99 78.87 L 49.48 79.13 L 49.00 78.09 L 48.70 77.80 L 48.92 77.25 L 48.55 76.01 L 48.37 75.83 L 48.86 75.02 L 48.85 74.15 L 49.09 73.70 L 49.05 72.54 L 48.85 72.27 L 48.53 71.98 L 47.81 72.11 L 46.31 72.85 L 45.22 73.82 L 44.88 73.73 L 44.61 74.00 L 44.20 74.02 L 43.84 73.06 L 43.42 72.61 L 43.36 71.34 L 42.53 70.89 L 42.40 70.63 Z"/>
    <path d="M 67.09 74.76 L 66.21 71.09 L 63.88 66.95 L 63.34 66.39 L 62.78 66.28 L 62.02 65.67 L 61.33 64.44 L 60.89 64.58 L 60.18 63.96 L 59.80 63.21 L 59.66 62.36 L 59.83 61.80 L 60.23 61.74 L 60.01 61.54 L 59.66 61.53 L 59.47 61.05 L 59.00 61.52 L 58.42 61.54 L 58.15 61.92 L 58.42 61.34 L 58.87 61.38 L 59.22 61.12 L 58.97 60.25 L 59.35 59.71 L 59.16 59.55 L 58.69 59.86 L 58.27 59.48 L 58.04 59.47 L 57.51 59.01 L 56.97 58.11 L 56.52 56.43 L 56.74 56.08 L 56.42 56.02 L 56.04 55.36 L 55.78 54.42 L 55.88 54.10 L 55.58 53.79 L 55.04 52.01 L 53.50 51.75 L 53.59 51.52 L 53.44 51.39 L 52.53 51.62 L 52.19 51.90 L 52.04 58.50 L 53.04 60.64 L 53.03 61.22 L 52.08 61.22 L 51.53 60.95 L 51.10 61.24 L 50.46 61.25 L 49.98 61.74 L 49.98 62.67 L 49.71 63.31 L 49.86 64.00 L 49.63 64.60 L 49.77 65.44 L 49.69 65.86 L 50.11 67.10 L 50.50 67.34 L 50.76 67.19 L 52.62 67.27 L 52.70 67.68 L 53.86 69.23 L 54.32 69.54 L 56.16 69.97 L 56.22 70.64 L 55.80 72.11 L 56.35 72.91 L 57.75 73.54 L 57.61 73.73 L 58.31 73.92 L 61.30 73.94 L 62.21 73.44 L 62.16 74.11 L 62.53 75.00 L 62.43 75.33 L 62.62 77.18 L 62.82 77.11 L 62.93 76.73 L 63.42 76.52 L 64.44 75.50 L 65.50 75.37 L 65.96 74.72 L 66.47 75.05 Z"/>
    <path d="M 60.98 101.43 L 61.59 91.57 L 61.84 90.18 L 61.26 89.61 L 61.36 89.04 L 61.15 88.88 L 60.95 88.23 L 61.31 87.53 L 61.16 86.96 L 60.62 86.93 L 58.85 86.18 L 58.76 86.32 L 58.23 85.94 L 58.17 84.95 L 57.78 84.41 L 58.44 83.14 L 59.35 82.55 L 58.78 81.88 L 58.46 81.80 L 58.59 81.48 L 58.33 80.39 L 57.15 79.37 L 57.50 78.98 L 56.96 77.35 L 57.10 76.50 L 56.65 76.24 L 57.15 75.52 L 56.48 75.41 L 55.46 76.08 L 55.03 76.16 L 54.98 76.65 L 54.48 76.91 L 54.07 76.83 L 54.03 77.21 L 54.41 78.01 L 54.06 78.37 L 53.78 78.40 L 53.84 78.82 L 53.17 79.05 L 52.46 78.99 L 52.38 79.72 L 52.59 80.13 L 52.41 80.76 L 52.53 81.20 L 52.00 81.37 L 51.42 81.87 L 51.45 81.63 L 51.18 81.42 L 51.23 81.24 L 50.98 80.79 L 49.82 81.06 L 49.95 81.90 L 49.09 83.02 L 48.55 83.33 L 48.45 83.88 L 48.14 83.98 L 47.83 83.85 L 47.47 83.22 L 47.12 83.41 L 46.63 84.12 L 46.73 84.69 L 47.16 84.93 L 47.67 85.61 L 47.96 86.50 L 48.52 86.45 L 48.63 86.19 L 49.27 86.13 L 49.45 86.60 L 49.75 86.49 L 50.12 87.42 L 50.26 88.33 L 50.21 88.73 L 49.83 89.33 L 49.90 90.01 L 49.49 90.17 L 49.67 90.60 L 49.09 90.78 L 48.94 91.00 L 49.12 91.17 L 49.00 91.32 L 48.50 91.32 L 48.38 91.10 L 48.08 91.92 L 47.68 92.23 L 46.30 92.77 L 46.22 93.04 L 46.46 93.08 L 47.05 93.72 L 46.86 93.93 L 45.82 94.09 L 45.89 94.55 L 45.73 94.65 L 44.91 94.51 L 44.77 95.43 L 44.88 96.05 L 44.49 96.72 L 44.62 96.86 L 45.07 96.77 L 45.48 97.05 L 45.27 97.66 L 44.88 97.88 L 44.77 99.31 L 44.88 99.86 L 45.52 100.56 L 45.22 100.51 L 44.81 100.86 L 44.81 101.48 L 44.17 101.12 L 43.96 101.33 L 43.70 101.63 L 43.64 102.55 L 42.83 101.58 L 42.94 100.40 L 42.69 100.23 L 42.34 100.34 L 42.26 99.51 L 42.04 99.23 L 41.58 99.21 L 41.54 98.71 L 41.17 98.51 L 41.19 98.16 L 40.89 98.14 L 40.38 98.71 L 40.11 99.69 L 39.72 99.91 L 39.28 100.53 L 39.31 101.02 L 39.10 101.05 L 39.18 101.38 L 38.99 101.45 L 38.84 102.01 L 38.92 102.33 L 38.21 103.32 L 37.86 104.10 L 38.31 105.10 L 38.11 105.57 L 38.30 105.76 L 38.16 105.97 L 38.35 106.56 L 38.19 106.71 L 38.89 107.66 L 38.97 108.04 L 40.09 108.43 L 40.07 108.62 L 40.27 108.76 L 40.19 109.08 L 40.63 109.83 L 41.66 109.32 L 42.01 108.98 L 43.50 108.40 L 43.63 107.98 L 43.41 107.69 L 43.18 107.68 L 43.21 107.13 L 43.35 106.88 L 44.06 107.02 L 44.43 106.56 L 44.46 106.11 L 44.79 106.43 L 45.06 106.06 L 45.60 106.05 L 45.96 106.22 L 47.02 106.14 L 47.25 106.84 L 47.42 106.78 L 47.61 106.99 L 47.88 106.98 L 48.00 106.68 L 48.42 106.60 L 49.21 107.74 L 49.61 108.02 L 49.51 108.26 L 49.64 108.40 L 50.47 108.52 L 51.06 108.10 L 51.21 107.68 L 53.84 107.05 L 54.02 106.82 L 54.34 106.81 L 54.61 106.33 L 54.83 106.58 L 55.40 106.49 L 55.63 106.23 L 55.99 106.18 L 56.95 106.53 L 57.18 106.19 L 57.07 105.32 L 57.36 104.86 L 57.16 104.60 L 57.24 103.93 L 58.48 103.22 L 58.75 102.74 L 59.16 102.72 L 59.71 102.19 L 60.18 102.30 L 60.88 101.77 Z"/>
    <path d="M 50.11 67.10 L 49.69 65.86 L 49.77 65.44 L 49.63 64.60 L 49.86 64.00 L 49.71 63.31 L 49.98 62.67 L 49.98 61.74 L 50.46 61.25 L 51.10 61.24 L 51.53 60.95 L 52.08 61.22 L 53.03 61.22 L 53.04 60.64 L 52.04 58.50 L 52.19 51.90 L 51.50 51.63 L 51.04 52.22 L 50.83 52.23 L 50.93 52.41 L 50.62 52.49 L 50.56 52.70 L 50.38 52.67 L 50.41 53.15 L 50.00 53.61 L 50.16 54.06 L 49.91 54.21 L 49.85 54.73 L 49.12 54.96 L 48.65 54.80 L 49.09 54.54 L 49.28 54.05 L 49.02 53.92 L 48.93 53.53 L 49.07 52.98 L 48.87 52.51 L 48.50 52.63 L 47.88 52.42 L 47.09 51.64 L 46.64 51.58 L 46.09 51.78 L 45.26 51.32 L 44.44 51.30 L 44.04 51.11 L 42.63 51.28 L 42.37 50.11 L 41.85 49.78 L 41.54 49.80 L 41.21 49.22 L 40.91 49.14 L 40.34 49.70 L 39.97 51.05 L 37.17 51.12 L 36.68 52.52 L 36.61 53.32 L 35.83 54.91 L 35.81 57.34 L 36.36 57.42 L 35.84 58.05 L 35.55 58.71 L 36.22 59.50 L 36.43 59.52 L 36.40 60.31 L 36.68 60.48 L 36.99 60.53 L 37.01 60.06 L 37.48 59.86 L 37.80 60.22 L 38.22 60.19 L 38.62 60.47 L 38.05 60.72 L 37.62 61.61 L 37.36 63.75 L 37.11 64.64 L 36.84 64.78 L 36.91 65.15 L 36.61 65.29 L 36.49 65.13 L 36.11 65.23 L 35.89 65.52 L 36.03 65.68 L 35.97 67.25 L 36.28 68.20 L 36.14 68.54 L 35.88 68.39 L 36.41 68.91 L 37.18 68.86 L 37.31 69.09 L 37.66 68.85 L 38.13 68.81 L 38.61 68.22 L 38.68 68.52 L 39.12 68.57 L 39.32 68.86 L 39.51 67.81 L 40.19 67.79 L 40.82 68.01 L 42.38 67.78 L 42.64 67.61 L 44.42 67.70 L 45.00 67.34 L 45.76 67.51 L 46.45 68.55 L 47.26 68.96 L 47.46 68.86 L 48.82 69.41 L 49.30 69.83 L 49.50 69.63 L 49.56 69.08 L 50.05 68.85 L 50.05 67.86 L 49.91 67.48 Z"/>
    <path d="M 9.48 89.61 L 9.43 89.93 L 8.99 90.15 L 9.10 90.36 L 8.82 90.84 L 8.82 90.71 L 8.68 90.77 L 8.78 90.42 L 8.59 90.15 L 8.73 90.32 L 8.68 90.61 L 8.62 90.49 L 8.57 90.63 L 8.11 90.61 L 8.11 90.26 L 8.33 90.00 L 8.09 90.25 L 8.08 90.61 L 8.61 90.82 L 9.13 92.79 L 9.28 94.19 L 10.36 97.39 L 10.49 97.32 L 10.41 96.90 L 9.98 95.75 L 10.11 95.60 L 10.86 96.04 L 10.90 96.41 L 11.69 96.42 L 11.91 96.06 L 13.06 96.03 L 14.38 94.73 L 14.96 95.14 L 15.28 95.10 L 15.67 94.42 L 15.96 94.48 L 16.24 94.81 L 16.48 95.71 L 16.89 95.79 L 17.06 95.38 L 16.79 94.76 L 17.30 94.44 L 17.76 94.20 L 18.20 94.49 L 18.50 94.33 L 18.70 94.50 L 19.32 94.34 L 19.09 93.39 L 18.52 93.14 L 18.93 91.97 L 19.26 91.84 L 19.61 91.42 L 19.51 90.83 L 19.87 90.87 L 19.95 90.74 L 19.77 89.72 L 18.35 89.60 L 18.28 89.86 L 17.03 89.74 L 16.94 90.02 L 16.60 90.09 L 16.49 90.36 L 16.26 90.43 L 16.10 91.59 L 15.52 91.71 L 15.24 91.57 L 15.13 91.74 L 13.94 91.22 L 13.74 90.56 L 13.14 90.65 L 12.93 90.91 L 12.00 90.67 L 11.69 90.82 L 11.40 90.47 L 11.07 90.40 L 10.86 90.60 L 10.70 90.46 L 10.32 90.54 L 10.37 90.30 L 9.76 90.23 L 9.93 89.77 L 9.76 89.54 Z"/>
    <path d="M 18.65 89.65 L 18.70 89.11 L 18.16 87.25 L 18.58 86.54 L 18.91 86.33 L 18.83 85.88 L 19.15 85.96 L 19.24 85.52 L 19.64 85.08 L 18.77 84.89 L 18.16 85.23 L 17.92 84.49 L 17.88 83.57 L 17.64 83.41 L 17.84 83.27 L 18.06 83.52 L 18.10 83.27 L 18.80 83.18 L 18.87 82.00 L 19.27 81.60 L 18.98 81.18 L 18.82 81.25 L 18.34 80.54 L 17.61 80.01 L 17.75 79.74 L 17.47 79.42 L 17.02 79.20 L 15.09 80.58 L 14.95 80.57 L 14.72 80.12 L 14.25 80.03 L 14.13 79.57 L 13.78 79.67 L 13.54 79.48 L 12.99 79.91 L 13.17 80.01 L 12.81 80.06 L 12.70 80.31 L 11.91 80.40 L 12.04 80.61 L 11.74 80.88 L 11.09 80.56 L 11.19 80.94 L 11.11 80.77 L 10.82 80.79 L 10.86 81.00 L 10.61 81.13 L 10.60 80.68 L 10.54 80.87 L 10.35 80.66 L 10.31 80.85 L 9.93 80.88 L 9.66 80.62 L 9.38 80.97 L 9.15 80.98 L 8.99 80.78 L 8.96 80.91 L 8.66 80.89 L 8.57 82.36 L 8.26 82.84 L 8.60 82.87 L 8.49 83.21 L 8.84 83.09 L 8.97 83.21 L 9.36 83.97 L 9.49 85.50 L 9.62 85.62 L 9.35 85.66 L 9.27 85.26 L 9.12 85.86 L 9.00 85.83 L 9.08 85.99 L 8.74 85.69 L 8.81 85.43 L 8.57 85.09 L 8.56 84.67 L 8.10 83.61 L 8.31 83.01 L 8.18 82.82 L 7.91 82.96 L 8.66 85.66 L 9.48 89.61 L 9.89 89.60 L 9.76 90.02 L 9.89 90.34 L 10.37 90.30 L 10.32 90.54 L 10.70 90.46 L 10.86 90.60 L 11.07 90.40 L 11.40 90.47 L 11.69 90.82 L 12.00 90.67 L 12.93 90.91 L 13.14 90.65 L 13.74 90.56 L 13.94 91.22 L 15.13 91.74 L 15.24 91.57 L 15.52 91.71 L 16.10 91.59 L 16.26 90.43 L 16.49 90.36 L 16.60 90.09 L 16.94 90.02 L 17.03 89.74 L 18.28 89.86 L 18.35 89.60 Z"/>
    <path d="M 24.63 106.01 L 24.60 105.75 L 22.61 102.79 L 22.36 102.64 L 22.09 101.90 L 22.66 101.69 L 22.32 100.96 L 21.71 100.31 L 20.89 100.04 L 20.73 99.74 L 20.73 99.11 L 19.73 98.12 L 19.23 97.07 L 19.42 96.97 L 19.04 96.07 L 19.03 95.46 L 18.70 95.01 L 18.50 94.33 L 18.20 94.49 L 17.76 94.20 L 16.79 94.76 L 17.06 95.38 L 16.89 95.79 L 16.48 95.71 L 16.24 94.81 L 15.96 94.48 L 15.67 94.42 L 15.28 95.10 L 14.96 95.14 L 14.38 94.73 L 13.06 96.03 L 11.91 96.06 L 11.69 96.42 L 10.90 96.41 L 10.86 96.04 L 10.31 95.62 L 10.02 95.65 L 10.41 96.90 L 10.49 97.32 L 10.36 97.39 L 11.42 99.62 L 12.79 103.46 L 12.63 103.64 L 12.83 104.47 L 12.55 104.68 L 12.58 105.00 L 13.31 105.97 L 13.57 105.67 L 13.91 105.76 L 14.23 106.18 L 15.16 106.52 L 15.40 106.82 L 15.93 106.71 L 16.71 107.18 L 17.21 107.78 L 17.92 107.74 L 18.95 108.11 L 19.48 107.96 L 19.46 107.60 L 19.62 107.61 L 19.78 107.36 L 20.48 107.46 L 21.51 108.27 L 22.13 108.99 L 22.25 108.68 L 21.94 107.64 L 21.94 107.01 L 22.20 106.84 L 22.62 106.86 L 24.27 105.97 L 24.58 106.03 Z"/>
    <path d="M 19.61 91.42 L 19.97 91.03 L 20.17 91.24 L 20.25 91.86 L 20.48 91.73 L 20.77 91.91 L 21.30 92.72 L 21.70 92.84 L 21.78 93.27 L 22.55 93.07 L 23.08 93.84 L 23.43 94.02 L 23.93 93.44 L 24.58 93.31 L 24.86 93.44 L 25.19 93.15 L 25.90 93.74 L 26.14 93.49 L 26.72 93.94 L 26.92 93.83 L 28.03 93.98 L 28.49 93.51 L 28.16 93.22 L 28.00 92.79 L 28.09 92.34 L 27.89 92.16 L 26.97 91.95 L 26.16 91.55 L 26.30 91.29 L 26.30 90.30 L 26.54 90.02 L 26.49 89.74 L 26.15 89.41 L 26.17 89.21 L 26.68 89.01 L 27.18 88.48 L 26.99 87.59 L 27.29 87.06 L 27.10 87.05 L 26.79 85.99 L 26.53 85.70 L 26.84 85.38 L 28.17 85.20 L 28.46 84.58 L 29.18 84.54 L 29.02 84.20 L 29.58 83.97 L 29.48 83.70 L 28.54 82.83 L 28.81 82.47 L 28.71 81.86 L 28.27 81.35 L 27.54 81.18 L 27.44 81.00 L 27.58 80.92 L 27.60 80.56 L 26.82 79.72 L 26.37 79.55 L 25.97 79.15 L 25.84 78.47 L 25.61 78.43 L 25.68 77.94 L 25.53 77.65 L 24.96 77.25 L 23.62 77.51 L 23.88 78.30 L 23.48 78.59 L 23.71 78.94 L 23.36 79.48 L 22.86 79.25 L 22.72 79.48 L 21.88 79.66 L 21.61 79.56 L 20.88 79.97 L 19.67 80.85 L 19.38 81.32 L 19.13 81.34 L 19.27 81.74 L 18.87 82.00 L 18.80 83.18 L 18.10 83.27 L 18.06 83.52 L 17.84 83.27 L 17.64 83.41 L 17.88 83.57 L 17.92 84.49 L 18.16 85.23 L 18.77 84.89 L 19.64 85.08 L 19.24 85.52 L 19.15 85.96 L 18.83 85.88 L 18.91 86.33 L 18.58 86.54 L 18.16 87.25 L 18.70 89.11 L 18.65 89.65 L 19.48 89.62 L 19.80 89.80 L 19.95 90.74 L 19.87 90.87 L 19.51 90.83 L 19.63 91.21 Z"/>
    <path d="M 16.36 53.52 L 16.47 53.76 L 16.31 54.42 L 16.59 55.17 L 16.75 56.52 L 17.14 57.03 L 17.88 57.41 L 17.59 59.18 L 17.77 59.45 L 17.28 60.41 L 17.73 61.10 L 17.27 61.30 L 16.96 60.93 L 16.62 60.85 L 16.56 61.46 L 16.33 61.61 L 16.27 61.91 L 16.09 61.86 L 16.11 61.70 L 15.48 61.93 L 15.54 62.55 L 15.32 62.66 L 15.30 63.13 L 14.91 63.12 L 14.47 63.50 L 14.45 63.98 L 13.52 64.37 L 13.68 64.82 L 13.31 64.92 L 13.17 65.50 L 13.41 65.93 L 13.15 66.38 L 13.37 66.80 L 13.30 66.98 L 12.67 67.31 L 12.62 67.55 L 12.01 67.66 L 11.98 68.20 L 11.59 68.36 L 12.25 68.65 L 12.14 68.99 L 11.80 68.97 L 11.74 68.79 L 11.23 69.01 L 11.28 69.28 L 11.08 69.57 L 11.38 69.72 L 11.05 69.88 L 11.01 70.22 L 10.55 70.73 L 10.64 71.28 L 10.39 72.41 L 10.53 74.01 L 11.49 78.64 L 11.61 80.80 L 11.74 80.88 L 11.77 80.71 L 12.00 80.68 L 11.88 80.43 L 12.07 80.28 L 12.40 80.42 L 12.70 80.31 L 12.81 80.06 L 13.17 80.01 L 12.99 79.91 L 13.54 79.48 L 13.78 79.67 L 14.13 79.57 L 14.25 80.03 L 14.72 80.12 L 14.95 80.57 L 15.09 80.58 L 17.02 79.20 L 17.47 79.42 L 17.75 79.74 L 17.61 80.01 L 18.34 80.54 L 18.82 81.25 L 18.98 81.18 L 19.13 81.34 L 19.38 81.32 L 19.67 80.85 L 21.61 79.56 L 21.88 79.66 L 22.72 79.48 L 22.86 79.25 L 23.36 79.48 L 23.71 78.94 L 23.48 78.59 L 23.88 78.30 L 23.62 77.51 L 24.96 77.25 L 25.53 77.65 L 25.68 77.94 L 25.61 78.43 L 25.96 78.34 L 26.29 78.53 L 26.53 78.41 L 26.88 78.62 L 26.91 78.43 L 26.71 78.28 L 27.33 77.33 L 27.01 76.82 L 27.27 76.76 L 28.49 77.56 L 28.68 77.46 L 28.65 76.74 L 29.02 76.78 L 29.01 76.60 L 29.28 76.68 L 29.29 76.50 L 29.60 76.70 L 29.82 76.57 L 29.34 75.67 L 29.78 75.67 L 29.86 75.48 L 30.11 75.44 L 30.07 75.09 L 30.41 74.81 L 30.25 74.56 L 30.34 73.92 L 30.19 73.69 L 30.02 73.77 L 30.10 73.46 L 29.71 73.04 L 29.71 72.67 L 30.00 72.02 L 30.37 71.96 L 30.19 71.40 L 30.46 71.07 L 30.11 70.60 L 30.10 70.30 L 29.61 69.97 L 29.49 69.40 L 29.69 69.38 L 29.73 69.04 L 29.62 68.10 L 29.23 67.99 L 29.25 67.10 L 29.02 66.94 L 28.73 66.11 L 28.26 66.05 L 28.05 65.02 L 28.14 64.81 L 27.67 64.61 L 27.53 64.08 L 27.23 63.81 L 27.55 63.00 L 27.39 62.45 L 27.14 62.19 L 27.00 60.99 L 26.59 60.70 L 26.18 60.91 L 25.74 60.75 L 25.96 60.47 L 25.64 59.15 L 25.76 58.08 L 25.33 57.74 L 24.96 57.95 L 24.30 57.66 L 22.47 55.90 L 21.23 55.95 L 20.78 55.42 L 19.71 55.11 L 19.47 54.82 L 18.91 54.88 L 18.78 54.57 L 18.24 54.51 L 17.81 54.17 L 16.98 54.00 L 16.53 53.57 Z"/>
    <path d="M 6.82 51.60 L 6.87 51.62 L 6.92 51.58 L 6.98 51.43 L 6.92 51.42 L 6.69 51.14 L 6.62 51.10 L 6.60 51.18 L 6.66 51.38 Z"/>
    <path d="M 10.96 42.56 L 10.84 43.12 L 9.51 43.48 L 9.25 45.30 L 9.30 46.00 L 8.82 46.31 L 8.69 46.83 L 8.79 48.97 L 8.58 49.11 L 8.38 49.73 L 8.53 50.14 L 7.92 51.44 L 7.72 52.29 L 7.10 52.45 L 7.52 52.53 L 7.44 52.78 L 7.19 52.61 L 8.01 53.36 L 7.95 54.34 L 8.01 54.56 L 8.43 54.87 L 8.47 55.31 L 8.03 55.73 L 7.87 56.40 L 7.50 56.87 L 7.17 56.86 L 7.35 57.23 L 7.10 57.13 L 8.17 58.36 L 8.47 58.95 L 8.41 59.34 L 7.99 59.46 L 8.20 60.25 L 8.06 60.61 L 8.18 61.65 L 8.02 61.92 L 8.04 60.52 L 7.82 60.82 L 7.68 60.77 L 8.06 60.33 L 8.09 59.97 L 6.95 59.98 L 6.15 59.73 L 5.83 59.55 L 5.54 58.96 L 5.79 58.31 L 5.69 57.81 L 6.10 57.49 L 5.56 57.21 L 5.40 56.85 L 5.52 56.03 L 5.25 55.73 L 5.37 55.17 L 5.62 55.10 L 5.83 54.43 L 5.74 54.15 L 5.91 53.99 L 5.57 53.39 L 6.11 52.72 L 6.34 52.97 L 6.53 52.81 L 6.40 52.21 L 6.73 51.62 L 6.45 51.60 L 5.64 52.53 L 5.39 52.61 L 5.65 52.19 L 5.62 51.95 L 6.02 52.02 L 6.34 51.43 L 6.13 51.30 L 6.12 51.54 L 5.96 51.53 L 6.19 51.18 L 6.06 50.77 L 6.45 50.44 L 6.19 50.38 L 6.78 49.05 L 6.99 48.40 L 6.80 48.20 L 7.00 47.99 L 6.73 48.14 L 6.61 48.46 L 6.56 49.21 L 5.74 51.24 L 5.49 52.39 L 4.75 52.92 L 4.85 52.94 L 4.33 53.14 L 4.73 52.90 L 4.54 52.87 L 4.24 53.13 L 4.63 55.01 L 4.50 55.96 L 4.67 56.57 L 4.63 57.68 L 5.79 61.32 L 7.25 67.68 L 7.43 70.03 L 7.33 70.84 L 7.00 71.03 L 7.10 73.03 L 8.66 80.89 L 8.96 80.91 L 8.99 80.78 L 9.15 80.98 L 9.38 80.97 L 9.66 80.62 L 9.93 80.88 L 10.31 80.85 L 10.35 80.66 L 10.54 80.87 L 10.60 80.68 L 10.61 81.13 L 10.86 81.00 L 10.82 80.79 L 11.11 80.77 L 11.19 80.94 L 11.09 80.56 L 11.61 80.80 L 11.63 80.67 L 11.49 78.64 L 10.53 74.01 L 10.39 72.41 L 10.64 71.28 L 10.55 70.73 L 11.01 70.22 L 11.05 69.88 L 11.38 69.72 L 11.08 69.57 L 11.28 69.28 L 11.23 69.01 L 11.74 68.79 L 11.80 68.97 L 12.14 68.99 L 12.25 68.65 L 11.59 68.36 L 11.98 68.20 L 12.01 67.66 L 12.62 67.55 L 12.67 67.31 L 13.30 66.98 L 13.37 66.80 L 13.15 66.38 L 13.41 65.93 L 13.17 65.50 L 13.31 64.92 L 13.68 64.82 L 13.52 64.37 L 14.45 63.98 L 14.47 63.50 L 14.91 63.12 L 15.30 63.13 L 15.32 62.66 L 15.54 62.55 L 15.48 61.93 L 16.11 61.70 L 16.09 61.86 L 16.27 61.91 L 16.33 61.61 L 16.56 61.46 L 16.62 60.85 L 16.96 60.93 L 17.27 61.30 L 17.73 61.10 L 17.28 60.41 L 17.77 59.45 L 17.59 59.18 L 17.88 57.41 L 17.14 57.03 L 16.75 56.52 L 16.59 55.17 L 16.31 54.42 L 16.47 53.76 L 16.20 53.16 L 15.90 53.13 L 15.69 52.75 L 15.17 52.86 L 14.46 52.32 L 14.15 52.64 L 13.34 52.60 L 13.21 51.84 L 12.80 51.15 L 12.59 49.38 L 11.94 48.43 L 12.04 47.69 L 12.66 47.59 L 13.06 47.11 L 13.05 46.83 L 13.92 46.18 L 14.28 45.58 L 14.61 44.75 L 14.30 43.75 L 13.58 43.50 L 13.36 43.24 L 13.05 43.29 L 12.67 42.99 L 12.30 43.07 L 11.83 42.80 L 11.49 42.90 L 11.19 42.65 Z"/>
    <path d="M 7.44 49.28 L 7.61 49.89 L 7.75 49.94 L 7.82 49.85 L 7.61 49.76 L 7.79 49.50 L 7.54 49.41 L 7.75 49.36 L 7.51 49.36 Z"/>
    <path d="M 7.35 45.98 L 7.61 46.06 L 7.13 45.66 L 7.17 45.45 L 6.99 45.38 L 6.82 44.77 L 7.04 44.26 L 6.99 43.56 L 7.01 43.96 L 6.75 44.62 L 7.18 45.76 Z"/>
    <path d="M 28.01 107.73 L 29.15 107.53 L 29.15 107.12 L 29.47 107.09 L 29.62 106.88 L 29.78 107.08 L 30.09 106.94 L 30.48 107.04 L 31.02 106.84 L 31.67 106.88 L 31.63 107.62 L 31.31 107.96 L 31.44 108.37 L 32.93 108.14 L 32.99 108.55 L 32.81 108.63 L 33.34 109.08 L 33.18 109.17 L 33.19 109.55 L 34.19 109.54 L 36.98 110.70 L 37.77 110.75 L 38.75 110.56 L 39.09 110.71 L 39.51 111.34 L 39.78 111.24 L 40.31 111.56 L 40.92 111.50 L 41.18 111.86 L 41.36 111.62 L 41.50 111.66 L 41.57 111.54 L 41.24 110.93 L 41.22 110.60 L 41.01 110.53 L 40.92 110.08 L 40.19 109.08 L 40.27 108.76 L 40.07 108.62 L 40.09 108.43 L 38.97 108.04 L 38.89 107.66 L 38.19 106.71 L 38.35 106.56 L 38.16 105.97 L 38.30 105.76 L 38.11 105.57 L 38.31 105.10 L 37.86 104.10 L 38.21 103.32 L 38.92 102.33 L 38.84 102.01 L 38.99 101.45 L 39.18 101.38 L 39.10 101.05 L 39.31 101.02 L 39.28 100.53 L 39.72 99.91 L 40.11 99.69 L 40.38 98.71 L 40.83 98.25 L 40.45 98.03 L 40.23 98.52 L 39.73 98.60 L 39.43 98.95 L 38.92 98.90 L 38.74 99.14 L 38.45 98.87 L 37.92 98.78 L 37.79 98.19 L 37.40 97.94 L 37.39 97.77 L 38.30 97.32 L 38.66 97.30 L 38.53 96.99 L 38.75 96.65 L 38.65 96.50 L 38.06 96.53 L 37.84 96.05 L 37.38 96.23 L 37.41 95.35 L 37.29 95.16 L 36.72 95.69 L 36.28 95.56 L 35.40 96.15 L 35.01 96.00 L 34.26 96.25 L 32.92 96.04 L 32.71 96.36 L 32.16 96.30 L 30.31 95.99 L 29.46 95.64 L 28.96 95.86 L 27.98 95.37 L 27.81 95.02 L 28.22 94.67 L 27.92 94.45 L 28.03 93.98 L 26.92 93.83 L 26.72 93.94 L 26.14 93.49 L 25.90 93.74 L 25.19 93.15 L 24.86 93.44 L 24.58 93.31 L 23.93 93.44 L 23.43 94.02 L 23.08 93.84 L 22.55 93.07 L 21.78 93.27 L 21.70 92.84 L 21.30 92.72 L 20.77 91.91 L 20.48 91.73 L 20.25 91.86 L 20.17 91.24 L 19.97 91.03 L 19.26 91.84 L 18.93 91.97 L 18.52 93.14 L 19.09 93.39 L 19.33 93.98 L 19.27 94.44 L 18.88 94.36 L 18.57 94.56 L 19.03 95.46 L 19.04 96.07 L 19.39 96.74 L 19.42 96.97 L 19.23 97.07 L 19.73 98.12 L 20.73 99.11 L 20.73 99.74 L 20.89 100.04 L 21.71 100.31 L 22.32 100.96 L 22.66 101.69 L 22.09 101.90 L 22.36 102.64 L 22.61 102.79 L 24.77 106.16 L 25.75 106.99 L 26.12 107.08 L 26.39 106.92 L 27.12 107.18 L 27.32 107.41 L 27.97 107.43 Z"/>
    <path d="M 42.20 74.53 L 40.96 74.49 L 40.54 75.32 L 40.28 75.22 L 40.19 75.41 L 39.97 74.93 L 39.60 74.97 L 39.39 75.25 L 38.89 74.93 L 38.52 75.00 L 38.21 75.27 L 37.64 75.37 L 37.24 75.73 L 37.29 75.95 L 36.75 76.32 L 36.40 76.25 L 35.87 75.70 L 35.65 75.70 L 35.26 75.26 L 35.04 75.23 L 34.90 74.93 L 34.11 75.44 L 34.43 76.37 L 34.25 77.28 L 34.03 77.53 L 32.71 77.60 L 30.32 75.94 L 30.28 75.55 L 30.11 75.44 L 29.86 75.48 L 29.78 75.67 L 29.34 75.67 L 29.82 76.57 L 29.60 76.70 L 29.29 76.50 L 29.28 76.68 L 29.01 76.60 L 29.02 76.78 L 28.65 76.74 L 28.68 77.46 L 28.49 77.56 L 27.27 76.76 L 27.01 76.82 L 27.33 77.33 L 26.71 78.28 L 26.96 78.55 L 26.76 78.59 L 26.53 78.41 L 26.29 78.53 L 25.96 78.34 L 25.84 78.47 L 25.97 79.15 L 26.37 79.55 L 26.82 79.72 L 27.60 80.56 L 27.58 80.92 L 27.44 81.00 L 27.54 81.18 L 28.27 81.35 L 28.71 81.86 L 28.81 82.47 L 28.54 82.83 L 29.48 83.70 L 29.58 83.97 L 29.02 84.20 L 29.18 84.54 L 28.46 84.58 L 28.17 85.20 L 26.84 85.38 L 26.53 85.70 L 26.79 85.99 L 27.10 87.05 L 27.29 87.06 L 27.08 87.29 L 26.99 88.06 L 27.07 88.15 L 27.36 87.89 L 27.83 88.22 L 28.07 88.22 L 28.62 89.52 L 29.34 90.12 L 29.72 90.75 L 30.46 90.64 L 30.45 90.19 L 30.80 90.03 L 30.94 89.41 L 31.19 89.15 L 30.68 88.42 L 29.98 87.80 L 29.69 87.07 L 29.33 87.25 L 29.37 86.82 L 29.76 86.57 L 29.96 86.72 L 30.27 86.56 L 30.46 86.79 L 31.92 86.64 L 32.23 86.05 L 32.55 85.94 L 33.74 86.25 L 34.96 84.29 L 35.23 84.20 L 36.17 83.12 L 36.05 81.98 L 35.64 81.55 L 35.62 80.89 L 37.09 82.29 L 37.10 82.92 L 37.72 83.23 L 38.53 83.36 L 39.42 83.23 L 39.55 83.64 L 39.95 83.10 L 41.24 83.01 L 42.16 83.18 L 42.47 82.69 L 43.20 82.58 L 43.45 82.08 L 42.26 78.24 L 42.45 77.33 L 42.06 76.75 L 42.23 76.34 L 42.23 74.67 Z"/>
    <path d="M 42.64 67.61 L 42.38 67.78 L 40.82 68.01 L 40.19 67.79 L 39.51 67.81 L 39.32 68.86 L 39.12 68.57 L 38.68 68.52 L 38.61 68.22 L 38.13 68.81 L 37.66 68.85 L 37.31 69.09 L 37.18 68.86 L 36.41 68.91 L 35.88 68.39 L 36.14 68.54 L 36.28 68.20 L 35.97 67.25 L 36.03 65.68 L 35.89 65.52 L 36.11 65.23 L 36.49 65.13 L 36.61 65.29 L 36.91 65.15 L 36.84 64.78 L 37.11 64.64 L 37.36 63.75 L 37.62 61.61 L 38.05 60.72 L 38.62 60.47 L 38.22 60.19 L 37.80 60.22 L 37.48 59.86 L 37.01 60.06 L 36.99 60.53 L 36.68 60.48 L 36.40 60.31 L 36.43 59.52 L 36.22 59.50 L 35.74 59.00 L 34.25 59.61 L 33.55 60.65 L 33.14 60.45 L 32.85 60.55 L 32.68 60.95 L 32.71 61.88 L 32.07 62.33 L 32.27 62.67 L 31.79 62.85 L 31.79 63.26 L 31.11 63.64 L 30.91 63.57 L 30.82 63.30 L 30.40 63.27 L 30.08 63.84 L 28.87 64.48 L 28.15 64.52 L 28.05 65.02 L 28.26 66.05 L 28.73 66.11 L 29.02 66.94 L 29.25 67.10 L 29.23 67.99 L 29.62 68.10 L 29.74 69.25 L 29.49 69.40 L 29.61 69.97 L 30.10 70.30 L 30.11 70.60 L 30.46 71.07 L 30.19 71.40 L 30.37 71.96 L 30.00 72.02 L 29.71 72.67 L 29.71 73.04 L 30.10 73.46 L 30.02 73.77 L 30.19 73.69 L 30.34 73.92 L 30.25 74.56 L 30.41 74.81 L 30.07 75.09 L 30.11 75.44 L 30.28 75.55 L 30.32 75.94 L 32.71 77.60 L 34.03 77.53 L 34.25 77.28 L 34.43 76.37 L 34.11 75.44 L 34.90 74.93 L 35.04 75.23 L 35.26 75.26 L 35.65 75.70 L 35.87 75.70 L 36.40 76.25 L 36.75 76.32 L 37.29 75.95 L 37.24 75.73 L 37.64 75.37 L 38.21 75.27 L 38.52 75.00 L 38.89 74.93 L 39.39 75.25 L 39.60 74.97 L 39.97 74.93 L 40.19 75.41 L 40.28 75.22 L 40.54 75.32 L 40.96 74.49 L 42.20 74.53 L 42.12 72.21 L 42.42 69.94 L 42.80 69.40 L 42.59 68.59 L 42.72 67.90 Z"/>
    <path d="M 41.36 83.06 L 39.95 83.10 L 39.55 83.64 L 39.42 83.23 L 38.53 83.36 L 37.36 83.10 L 37.10 82.92 L 37.09 82.29 L 35.62 80.89 L 35.64 81.55 L 36.05 81.98 L 36.17 83.12 L 35.23 84.20 L 34.96 84.29 L 33.74 86.25 L 32.55 85.94 L 32.23 86.05 L 31.92 86.64 L 30.46 86.79 L 30.27 86.56 L 29.96 86.72 L 29.76 86.57 L 29.37 86.82 L 29.33 87.25 L 29.69 87.07 L 29.98 87.80 L 30.68 88.42 L 31.19 89.15 L 30.94 89.41 L 30.80 90.03 L 30.45 90.19 L 30.46 90.64 L 29.72 90.75 L 29.34 90.12 L 28.62 89.52 L 28.07 88.22 L 27.83 88.22 L 27.36 87.89 L 27.07 88.15 L 27.18 88.48 L 26.68 89.01 L 26.17 89.21 L 26.15 89.41 L 26.49 89.74 L 26.54 90.02 L 26.30 90.30 L 26.30 91.29 L 26.16 91.55 L 26.97 91.95 L 27.56 92.00 L 28.09 92.34 L 28.00 92.79 L 28.16 93.22 L 28.49 93.51 L 27.90 94.33 L 28.22 94.67 L 27.81 95.02 L 27.98 95.37 L 28.96 95.86 L 29.46 95.64 L 30.31 95.99 L 32.71 96.36 L 32.92 96.04 L 34.26 96.25 L 35.01 96.00 L 35.40 96.15 L 36.28 95.56 L 36.72 95.69 L 37.47 95.04 L 37.78 95.12 L 38.14 94.57 L 37.55 94.35 L 37.45 94.07 L 37.97 93.92 L 38.15 93.58 L 37.64 93.08 L 37.75 92.65 L 37.55 92.49 L 37.39 92.55 L 37.47 92.20 L 37.29 92.13 L 37.33 91.90 L 36.38 91.65 L 36.35 91.47 L 36.50 91.31 L 37.52 91.39 L 37.94 91.07 L 38.09 90.30 L 38.88 89.64 L 39.26 89.77 L 39.95 89.66 L 40.58 89.26 L 40.87 87.86 L 41.13 87.72 L 41.22 87.38 L 41.65 87.12 L 41.73 86.79 L 41.93 86.69 L 41.57 86.32 L 41.52 85.99 L 41.92 85.41 L 41.48 85.15 L 41.45 84.88 L 41.54 84.69 L 41.80 84.78 L 41.82 84.34 L 41.26 83.15 Z"/>
    <path d="M 36.02 31.61 L 35.65 32.55 L 36.53 32.11 L 37.40 32.25 L 38.62 33.09 L 39.15 33.24 L 40.37 34.58 L 40.32 34.97 L 39.50 36.01 L 39.39 36.60 L 39.37 37.07 L 39.72 37.34 L 39.75 37.96 L 40.40 39.20 L 40.41 39.42 L 40.00 39.74 L 39.80 40.23 L 39.82 40.95 L 40.47 41.44 L 40.51 42.04 L 41.30 43.02 L 41.40 44.34 L 41.88 44.60 L 41.87 44.98 L 42.56 45.01 L 42.69 45.30 L 42.46 45.50 L 42.12 45.49 L 42.15 45.74 L 41.59 46.36 L 41.23 47.58 L 40.81 48.30 L 40.72 49.39 L 40.91 49.14 L 41.21 49.22 L 41.54 49.80 L 41.85 49.78 L 42.37 50.11 L 42.63 51.28 L 44.04 51.11 L 44.44 51.30 L 45.26 51.32 L 46.09 51.78 L 46.64 51.58 L 47.09 51.64 L 47.88 52.42 L 48.50 52.63 L 48.87 52.51 L 49.07 52.98 L 48.93 53.53 L 49.02 53.92 L 49.28 54.05 L 49.09 54.54 L 48.81 54.62 L 48.68 54.89 L 49.12 54.96 L 49.85 54.73 L 49.91 54.21 L 50.16 54.06 L 50.00 53.61 L 50.41 53.15 L 50.38 52.67 L 50.56 52.70 L 50.62 52.49 L 50.93 52.41 L 50.83 52.23 L 51.04 52.22 L 51.50 51.63 L 52.19 51.90 L 52.75 51.50 L 53.12 51.55 L 53.44 51.39 L 53.59 51.52 L 53.50 51.75 L 55.04 52.01 L 54.49 49.66 L 54.61 48.73 L 54.26 48.20 L 53.44 44.71 L 53.28 44.51 L 52.36 43.82 L 52.23 44.11 L 51.92 44.28 L 51.27 44.35 L 51.50 44.95 L 51.22 45.59 L 50.19 45.68 L 50.35 45.75 L 50.21 45.85 L 50.14 45.73 L 50.18 45.85 L 50.01 45.92 L 50.16 45.68 L 49.56 45.72 L 48.99 45.47 L 48.71 44.98 L 48.62 44.39 L 48.24 44.20 L 47.40 44.34 L 47.08 44.90 L 46.59 44.48 L 46.56 44.30 L 46.93 44.21 L 47.55 43.22 L 48.22 43.80 L 48.29 43.48 L 48.50 43.54 L 48.47 44.17 L 48.66 44.30 L 49.27 44.28 L 49.04 43.74 L 49.30 43.63 L 48.92 43.68 L 49.05 43.50 L 48.85 43.39 L 48.97 43.30 L 48.64 43.24 L 49.07 42.93 L 48.68 42.97 L 48.64 42.69 L 48.90 42.68 L 48.86 42.49 L 48.66 42.44 L 48.90 42.21 L 48.97 42.54 L 49.48 42.06 L 49.11 42.62 L 49.71 42.38 L 49.91 42.74 L 49.53 43.24 L 49.84 43.15 L 49.68 43.39 L 49.84 43.49 L 50.26 43.12 L 50.27 42.78 L 50.04 42.45 L 50.25 42.11 L 50.09 42.30 L 49.86 42.17 L 49.47 41.26 L 49.47 40.99 L 49.68 40.74 L 49.64 40.02 L 49.04 39.36 L 48.18 37.63 L 47.73 37.30 L 47.36 36.63 L 47.20 36.64 L 46.53 35.95 L 45.92 35.05 L 45.51 33.88 L 45.28 33.83 L 45.34 33.66 L 44.97 33.97 L 44.37 33.52 L 43.85 32.94 L 43.18 31.60 L 42.86 31.46 L 41.95 30.19 L 41.75 30.60 L 41.93 31.12 L 41.19 31.47 L 41.40 31.58 L 41.21 31.87 L 40.93 31.60 L 40.74 31.86 L 40.67 31.60 L 40.41 31.61 L 40.34 31.19 L 40.16 31.28 L 40.29 31.03 L 40.18 30.69 L 40.78 30.81 L 40.91 30.60 L 40.48 30.38 L 40.80 29.98 L 40.51 30.20 L 40.05 30.19 L 40.00 30.37 L 39.69 30.30 L 39.62 30.55 L 39.23 30.68 L 39.10 30.94 L 38.03 30.92 L 37.86 31.06 L 36.31 31.32 L 36.19 31.49 Z"/>
  </g>
</svg>
